<?xml version="1.0" standalone="no"?>
<!DOCTYPE svg PUBLIC "-//W3C//DTD SVG 1.1//EN" "http://www.w3.org/Graphics/SVG/1.1/DTD/svg11.dtd" >
<!--
2013-9-30: Created.
-->
<svg>
<metadata>
Created by iconfont
</metadata>
<defs>

<font id="iconfont" horiz-adv-x="1024" >
  <font-face
    font-family="iconfont"
    font-weight="500"
    font-stretch="normal"
    units-per-em="1024"
    ascent="896"
    descent="-128"
  />
    <missing-glyph />
    
    <glyph glyph-name="systemSettings" unicode="&#58955;" d="M375.606627 61.476399000000015L240.469413 61.476399000000015 240.469413-14.798797990000025 451.734517-14.798797990000025 378.529309 58.402386999999976ZM351.786152 241.18329399000004L109.700873 241.18329399000004 109.700873 725.446579 850.47699799 725.446579 850.47699799 545.3160359999999 902.817161 582.6963880000001 959.327468 526.1894199999999 959.327468 829.90874601 0.85040199 829.90874601 0.85040199 125.68169999999998 351.786152 125.68169999999998ZM1023.14857401 182.307372L1023.14857401 295.148369l-86.16898201 14.347776c-3.503944 10.642384-7.77744601 20.93582199-12.73147401 30.82505301l50.77137101 71.04507899-79.78124301 79.777975-70.95895899-50.677193c-9.925453 5.028527-20.290947 9.320273-31.008472 12.842493l-14.348364 86.016049L666.073759 539.325601l-14.3105-85.97921c-10.717525-3.52222-21.04617801-7.851828-30.972654-12.84249299l-70.956912 50.67719299-79.763846-79.760578 50.75192701-71.062476c-4.953005-9.888208-9.2306-20.181645-12.73147401-30.824029l-86.205823-14.42350099 0-112.84099801 86.387979-14.38461499c3.505991-10.56870601 7.742652-20.75264999 12.716124-30.54978301l-50.917709-71.338768 79.763846-79.758532 71.450166 51.02614c9.725901-4.89958999 19.90923799-9.139148 30.404696-12.58769l14.423069-86.58500699 112.847668-2e-8 14.438419 86.58500701c10.47703801 3.44854201 20.62455801 7.65126 30.38832299 12.58769l71.45016601-51.04456 79.781243 79.77695099-50.9392 71.31932501c4.97654201 9.81657601 9.214227 20.00052 12.71817101 30.54978301L1023.14857401 182.307372zM722.516525 148.90461100000005c-49.613964 0-89.80493801 40.189328-89.804938 89.803305 0 49.617048 40.18995099 89.804329 89.804938 89.804329 49.616011 0 89.806985-40.18625802 89.80698499-89.804329C812.32350999 189.09393801 772.132536 148.90461100000005 722.516525 148.90461100000005z"  horiz-adv-x="1024" />

    
    <glyph glyph-name="create" unicode="&#59154;" d="M964.1000125 365.23152265c0-41.30575305-33.79597731-75.10172907-75.10040475-75.10172907L134.22808754 290.12979228999995c-41.30575305 0-75.10172907 33.79597731-75.10172905 75.10172905l0 37.53165617c0 41.30575305 33.79597731 75.10172907 75.10172905 75.10172907l754.77152021 0c41.30575305 0 75.10040475-33.79597731 75.10040475-75.10172907L964.1000125 365.23152265zM530.37835142 836.48748982c41.30707735 0 75.10172907-33.79597731 75.10172907-75.10172906l0-754.77152022c0-41.30707735-33.79597731-75.10172907-75.10172907-75.10172906l-37.53033186 0c-41.30575305 0-75.10172907 33.79597731-75.10172906 75.10172906L417.74628921 761.38575946c0 41.30575305 33.79597731 75.10172907 75.10172905 75.10172906L530.37835142 836.48748982z"  horiz-adv-x="1024" />

    
    <glyph glyph-name="snapshot" unicode="&#58926;" d="M912.50000001 624L752 624 752 704.25c0 44.25-36 80.25-80.25 80.24999999L352.25 784.50000001c-44.25 0-80.25-36-80.25-80.25000001L272 624 111.49999999 624C67.25 624 32 588 32 544.50000001l0-480.00000002c0-44.25 36-80.25 80.25-80.24999999l800.24999999 0c44.25 0 80.25 36 80.25000001 80.25000001l0 479.99999998C992 588 956.75 624 912.50000001 624zM151.99999999 464.25c-21.75 0-39.75000001 18-39.74999999 39.75000001 0 21.75 18 39.75000001 39.75000001 39.74999999 21.75 0 39.75000001-18 39.74999999-39.74999999C191.75 482.25 173.75 464.25 151.99999999 464.25zM512 69.75c-134.25 0-243 108.75-243 243 0 134.25 108.75 243 243 243 134.25 0 243-108.75 243-243C755 178.49999999 646.25 69.75 512 69.75zM512 312.75m-139.50000001 0a17.4375 17.4375 0 1 1 279.00000002 0 17.4375 17.4375 0 1 1-279.00000002 0Z"  horiz-adv-x="1025" />

    
    <glyph glyph-name="shutdown" unicode="&#58885;" d="M761.69458156 716.55829229q42.56157656-30.26601 75.665025-68.57142844t56.74876875-82.75862063 35.94088688-94.10837437 12.29556656-100.72906407q0-87.96059156-33.57635437-165.04433531t-90.79803-134.30541844-134.30541844-90.79802999-165.04433531-33.57635438q-87.01477875 0-164.0985225 33.57635438t-134.77832532 90.79803-90.79803 134.30541843-33.10344843 165.04433532q0 50.12807906 11.82265968 98.36453156t33.57635438 91.74384281 53.91133031 81.33990188 71.88177375 68.0985225q20.80788188 15.133005 44.92610813 11.34975375t39.25123125-23.64532032 11.34975375-44.45320218-23.64532032-39.72413813q-59.58620719-43.50738938-91.27093593-106.87684687t-31.68472875-136.19704407q0-62.42364562 23.64532031-117.75369468t64.78817719-96.47290594 96.47290593-65.26108406 117.75369469-24.11822625 117.75369469 24.11822625 96.47290594 65.26108406 65.26108406 96.47290594 24.11822625 117.75369468q0 73.77339937-34.04926125 139.50738938t-95.52709406 108.29556656q-20.80788188 14.18719219-25.06403907 38.77832531t9.93103407 45.399015q14.18719219 19.86206906 38.77832531 24.11822625t45.399015-9.93103406zM518.62068969 367.55336635000003q-24.59113312 0-42.08866969 17.49753656t-17.49753656 42.08866969l0 359.40886687q0 24.59113312 17.49753656 42.56157656t42.08866969 17.97044344q25.53694594 0 43.0344825-17.97044344t17.49753656-42.56157656l0-359.40886687q0-24.59113312-17.49753656-42.08866969t-43.0344825-17.49753656z"  horiz-adv-x="1024" />

    
    <glyph glyph-name="edit" unicode="&#58900;" d="M630.98783805 845.417l114.12845204-67.35739187c31.51747774-18.6010347 42.31721195-59.79630659 24.12312763-92.01605651l-45.25064811-80.11981595c-2.29333634-4.0596154-7.4551099-5.44296383-11.4709209-3.07332499l-213.65755162 126.09958253c-4.015811 2.36963885-5.42459451 7.63173739-3.13125956 11.69135141l45.25064811 80.11981595C559.17235877 852.97808528 599.47318687 864.02227389 630.98783805 845.417zM470.91635666 696.71187535c2.29333634 4.0596154 7.4551099 5.44296383 11.47092089 3.07332498l213.65613904-126.09958253c4.015811-2.36963885 5.42459451-7.63173739 3.13267216-11.69135139L460.41618346 139.25170429000002c-2.29333634-4.0596154-7.4551099-5.44296383-11.4709209-3.07332502l-213.65613903 126.09958253c-4.015811 2.36963885-5.42459451 7.63173739-3.13267216 11.69135142L470.91635666 696.71187535zM212.76129926 229.03518419c-0.68672942 4.61210639 2.03616579 6.44621097 6.05197677 4.07657076l213.65613904-126.09958252c4.015811-2.36963885 3.75864045-5.7241555-0.57227429-7.45369593l-180.74259393-72.19134414c-4.33091472-1.72954042-8.43574715 0.62879487-9.12247657 5.24090264L212.76129926 229.03518419zM173.61914988-13.391516280000019l679.42242309 0c20.84350224 0 37.74184421-16.89834198 37.74184422-37.74608202 0-20.84350224-16.89834198-37.7489086-37.74184422-37.7489086L173.61914988-88.88650689999997c-20.84632745 0-37.74608202 16.90682034-37.74608203 37.7489086C135.87306647-30.28985825999996 152.77282105-13.391516280000019 173.61914988-13.391516280000019z"  horiz-adv-x="1024" />

    
    <glyph glyph-name="migration" unicode="&#59021;" d="M854.02094956-63.525570010000024l-63.95663701 0c-35.323507 0-63.956637 28.639271-63.956637 63.96277701L726.10767455 384.17396201 726.10767455 767.910717c0 35.323507 28.633131 63.956637 63.956637 63.95663699l63.956637 0c35.322483 0 63.956637-28.633131 63.956637-63.95663699l0-767.474532C917.97758655-34.88629900000001 889.34445655-63.525570010000024 854.02094956-63.525570010000024zM470.28419555 320.21732499999996L278.41530655 320.21732499999996 278.41530655 448.130599l191.868889 0L470.28419555 576.048991 726.10869855 384.17396201 470.28419555 192.305073 470.28419555 320.21732499999996zM214.46583155 256.26784998999995l191.86172601 2e-8 0-255.83064301c0-35.322483-28.639271-63.962777-63.95663701-63.96277701L150.50305455-63.525570010000024c-35.323507 0-63.956637 28.639271-63.956637 63.96277701L86.54641756 767.910717c0 35.323507 28.633131 63.956637 63.95663699 63.95663699l191.868889 0c35.316344 0 63.956637-28.633131 63.956637-63.95663699l0-255.82450301L214.46583155 512.08621401 214.46583155 256.26784998999995z"  horiz-adv-x="1024" />

    
    <glyph glyph-name="restart" unicode="&#59046;" d="M512 832a112 112 0 1 1-0.064-223.936A112 112 0 0 1 512 832zM260.032 720a84.032 84.032 0 1 1 0-168.064 84.032 84.032 0 0 1 0 168.064zM120 440a56 56 0 1 1 0-112 56 56 0 0 1 0 112z m112-280a56 56 0 1 1 0-112 56 56 0 0 1 0 112zM512 48A56 56 0 1 1 512-64a56 56 0 0 1 0 112z m280 112a56 56 0 1 1 0-112 56 56 0 0 1 0 112z m112 280a56 56 0 1 1 0-112 56 56 0 0 1 0 112z m0 168a112 112 0 1 1-223.936 0.064 112 112 0 0 1 223.936-0.064z"  horiz-adv-x="1024" />

    
    <glyph glyph-name="physicalresources" unicode="&#58979;" d="M502.7 510.5c-150.2 0-295.5 29.3-370.3 74.7l-33 20V447c0-42.7 69.9-72.7 111.6-86.7 53.8-18.2 148.1-39.9 291.7-39.9s237.8 21.7 291.7 39.9c41.7 14 111.6 44 111.6 86.7V605.2l-33-20c-74.7-45.4-220.1-74.7-370.3-74.7zM502.7 171c-150.2 0-295.5 29.3-370.3 74.7l-33 20v-170.8c0-42.7 69.9-72.7 111.6-86.7 53.8-18.2 148.1-39.9 291.7-39.9s237.8 21.7 291.7 39.9c41.7 14.1 111.6 44.1 111.6 86.7V265.70000000000005l-33-20C798.3 200.29999999999995 652.9 171 502.7 171zM502.7 284.1c-150.2 0-295.5 29.3-370.3 74.7l-33 20v-45c0-42.7 69.9-72.7 111.6-86.7 53.8-18.2 148.1-39.9 291.7-39.9s237.8 21.7 291.7 39.9c41.7 14.1 111.6 44.1 111.6 86.7v45l-33-20c-74.7-45.3-220.1-74.7-370.3-74.7zM502.6 800.3C279.8 800.3 99.2 743 99.2 672.2s180.6-128 403.4-128c222.8 0 403.4 57.3 403.4 128S725.4 800.3 502.6 800.3z m-109-197.9c-30.7 3.5-59.7 8.2-86.2 14-58.7 12.9-103.2 30.8-127.6 51.4l342.1 36.5-128.3-101.9z"  horiz-adv-x="1024" />

    
    <glyph glyph-name="uers" unicode="&#58963;" d="M502.19113062 384c130.2988575 0 235.92132563 103.14926438 235.92132469 230.30049656S632.48998812 844.48778906 502.19113062 844.48778906c-130.35545906 0-235.97792719-103.03606125-235.97792718-230.24389406 0-127.09462969 105.62246812-230.243895 235.97792718-230.243895z m108.09567094-76.72877813H413.65755594c-168.24209156 0-304.72491656-133.16635313-304.72491657-297.41755031v-19.16780437c0-67.11705469 136.42622344-67.17365625 304.72491657-67.17365625H610.28680156c168.35433563 0 304.78055906 2.47320281 304.78055906 67.17365625v19.16780437c0 164.25119813-136.42622344 297.41755125-304.78055906 297.41755032z"  horiz-adv-x="1024" />

    
    <glyph glyph-name="info" unicode="&#58978;" d="M940.72035555 564.77468445a464.32028445 464.32028445 0 0 1-99.85820444 148.11363555A464.33848889 464.33848889 0 0 1 511.41745778 849.35111111a464.34417778 464.34417778 0 0 1-329.44355556-136.42069333A464.29752889 464.29752889 0 0 1 45.51111111 383.44476445a464.33962667 464.33962667 0 0 1 136.42069334-329.44355556 464.33621333 464.33621333 0 0 1 329.48451555-136.46279111 464.34645333 464.34645333 0 0 1 329.44469333 136.41955555 464.33735111 464.33735111 0 0 1 136.46279112 329.48565334c0.00113778 62.8736-12.28458667 123.92334222-36.6034489 181.33105778zM609.33688889 162.70335999999998c-21.20704-8.12032-38.08824889-14.31779555-50.74830222-18.53781333-12.60885333-4.27463111-27.24636445-6.41137778-44.02062222-6.41137778-25.64323555 0-45.62147555 6.03818667-59.83232 18.21809778-14.20970667 12.12643555-21.36632889 27.61955555-21.3663289 46.31552 0 7.31932445 0.53361778 14.74673778 1.60085334 22.33230222s2.77731555 16.18602667 5.12796444 25.74791111l26.55118222 91.08593778c2.35064889 8.76088889 4.38158222 17.04163555 5.98357334 24.78762667 1.60312889 7.85294222 2.40412445 14.95722667 2.40412444 21.36632888 0 11.70090667-2.50993778 19.82008889-7.47861333 24.36096-4.91406222 4.59434667-14.31665778 6.89265778-28.3136 6.89265778-6.83918222 0-13.88999111-1.01717333-21.04775111-3.15278222-7.21123555-2.08327111-13.35523555-4.00725333-18.53667556-5.92896l7.05080889 28.09856c17.41596445 6.83918222 33.97632 12.76814222 49.84263111 17.62986666 15.86631111 4.91406222 30.87928889 7.37166222 45.03552 7.37166223 25.48167111 0 45.14247111-5.98243555 58.97898667-17.94844445 13.78076445-11.96600889 20.72689778-27.51146667 20.72689778-46.63637333 0-4.00611555-0.48128-10.95224889-1.44270223-20.93852445a137.81560889 137.81560889 0 0 0-5.2883911-27.45912888l-26.38961778-90.81742222c-2.19022222-7.26584889-4.11420445-15.59893333-5.82200889-24.94919112-1.71121778-9.35025778-2.56568889-16.39992889-2.56568889-21.20817778 0-12.07409778 2.77845333-20.24789333 8.33308444-24.62833777 5.55576889-4.43392 15.17226667-6.57180445 28.84721778-6.57180445a84.78947555 84.78947555 0 0 1 21.79185778 3.25745778 124.66403555 124.66403555 0 0 1 17.63100444 5.76967111l-7.05308444-28.04622222z m-4.64327111 368.66503111c-12.28686222-11.16615111-27.13827555-16.72078222-44.49962667-16.72078222-17.30901333 0-32.21390222 5.55463111-44.55310222 16.72078222-12.44615111 11.11267555-18.69937778 24.57372445-18.69937778 40.33308444a52.77923555 52.77923555 0 0 0 18.64476444 40.6016c12.39381333 11.27082667 27.29870222 16.82773333 44.60771556 16.82773334a63.69166222 63.69166222 0 0 0 44.49962667-16.82773334v0.05347556a53.0432 53.0432 0 0 0 18.48206222-40.6016 52.55395555 52.55395555 0 0 0-18.48206222-40.38656z"  horiz-adv-x="1024" />

    
    <glyph glyph-name="log" unicode="&#58945;" d="M494.208 699.136h-178.773333V607.573333h183.125333V699.136h-4.352z m544.896-544.938667H132.352L40.832-120.44799999999998H1130.666667l-91.562667 274.645333z m0 728.021334H132.352V245.76h906.752V882.218667z m-91.52-544.938667H223.914667V790.656h728.021333v-453.376h-4.352z m-270.293333 178.730667H315.434667v-91.52h361.856V516.010667z"  horiz-adv-x="1152" />

    
    <glyph glyph-name="assign" unicode="&#58910;" d="M512 861.86666667C249.17333333 861.86666667 34.13333333 646.82666667 34.13333333 384s215.04-477.86666667 477.86666667-477.86666667 477.86666667 215.04 477.86666667 477.86666667S774.82666667 861.86666667 512 861.86666667z m273.06666667-597.33333334H368.64l98.98666667-98.98666666-64.85333334-64.85333334L238.93333333 264.53333333v92.16h546.13333334v-92.16z m0 146.77333334H238.93333333v92.16h416.42666667l-98.98666667 98.98666666 64.85333334 64.85333334 163.84-163.84v-92.16z"  horiz-adv-x="1024" />

    
    <glyph glyph-name="tag" unicode="&#58968;" d="M221.19999969-88.00000031000002c-34.00000031 0-61.99999969 27.6-61.99999969 62.00000062v804C159.2 812.4 186.8 840 221.19999969 840c34.00000031 0 61.99999969-27.6 62.00000062-61.99999969v-804.40000031c-0.40000031-34.00000031-28.00000031-61.60000031-62.00000062-61.60000031zM337.20000031 260.4V799.99999969c0 9.19999969 4.8 17.20000031 12.39999938 22.00000031 7.60000031 4.8 17.20000031 5.20000031 25.2 1.2l539.60000062-270c8.80000031-4.39999969 14.4-13.60000031 14.4-23.20000031 0-10.00000031-5.59999969-18.79999969-14.4-23.19999938L374.79999969 237.19999969000003c-7.99999969-4.00000031-17.59999969-3.6-25.2 1.2-7.99999969 4.39999969-12.40000031 12.79999969-12.39999938 22.00000031z"  horiz-adv-x="1024" />

    
    <glyph glyph-name="end" unicode="&#58915;" d="M512.01194 864C246.922985 864 32.01194 649.1510447 32.01194 384S246.922985-96 512.01194-96c265.1510447 0 480 214.8489553 480 480S777.16298469 864 512.01194 864z m160.00000031-607.99999969c0-17.66686594-14.33313469-31.99999969-31.99999968-32.00000062H384.01671687a32.01432844 32.01432844 0 0 0-32.00477625 32.00000062V511.99522406a32.01432844 32.01432844 0 0 0 32.00477625 32.00477625H640.01194062c17.66686594 0 31.99999969-14.33313469 31.99999969-32.00477625V256.00000031z m0 0"  horiz-adv-x="1029" />

    
    <glyph glyph-name="close" unicode="&#58884;" d="M803.27111111 749.8365155500001c-8.15559111 6.99050667-19.80643555 12.81592889-31.45728 12.8159289-25.63185778 0-45.43829333-20.97152-46.60337778-46.60337778 0-20.97152 11.65084445-32.62236445 11.65084445-32.62236445C826.5728 615.8518044499999 884.82702222 508.66403555 884.82702222 388.66033778c0-205.05486222-167.77216-372.82702222-372.82702222-372.82702223s-372.82702222 167.77216-372.82702222 372.82702223c0 121.16878222 58.25422222 227.19146667 147.96572444 294.76636444 8.15559111 8.15559111 13.98101333 19.80643555 13.98101333 32.62236445 0 25.63185778-20.97152 46.60337778-46.60337777 46.60337778-20.97152 0-32.62236445-12.81592889-32.62236445-12.8159289-106.02268445-85.05116445-174.76266667-214.37553778-174.76266666-361.17617777 0-257.48366222 208.55011555-466.03377778 466.03377778-466.03377778 256.31857778 0 466.03377778 208.55011555 466.03377777 466.03377778C978.03377778 534.29589333 908.12871111 663.62026667 803.27111111 749.8365155500001zM512 336.23153778000005c25.63185778 0 46.60337778 20.97152 46.60337778 46.60337777V797.60497778c0 25.63185778-20.97152 46.60337778-46.60337778 46.60337777s-46.60337778-20.97152-46.60337778-46.60337777v-415.93514667c0-24.46677333 20.97152-45.43829333 46.60337778-45.43829333z"  horiz-adv-x="1024" />

    
    <glyph glyph-name="restart1" unicode="&#58903;" d="M511.997 832c-35.341 0-63.993-28.653-63.993-63.993v-128.005c0-35.341 28.653-63.993 63.993-63.993 35.353 0 64 28.653 64 63.993V768.007c-0.001 35.34-28.647 63.993-64 63.993z m0-639.983c-35.341 0-63.993-28.672-63.993-64.012v-127.993c0-35.36 28.653-64.012 63.993-64.012 35.353 0 64 28.653 64 64.012V128.005c-0.001 35.341-28.647 64.012-64 64.012zM319.998 384.003c0 35.36-28.646 64.012-63.993 64.012H128c-35.341 0-64-28.653-64-64.012 0-35.328 28.659-63.993 64-63.993h128.005c35.347 0 63.993 28.665 63.993 63.993zM896 448.016H767.995c-35.341 0-64-28.653-64-64.012 0-35.328 28.659-63.993 64-63.993H896c35.347 0 64 28.665 64 63.993 0 35.359-28.653 64.012-64 64.012z m-157.733 71.762l90.508 90.508c24.992 24.985 24.998 65.51 0 90.515-24.985 24.985-65.516 24.985-90.502-0.019l-90.515-90.515c-24.992-24.985-24.992-65.504-0.006-90.489 25.005-25.004 65.517-25.004 90.515 0zM285.726 248.247l-90.508-90.515c-24.998-25.005-24.992-65.523-0.006-90.508 24.998-25.005 65.51-24.985 90.508 0l90.515 90.508c24.985 24.985 24.998 65.51 0 90.515-24.986 24.986-65.517 24.986-90.509 0z m0 452.554c-24.992 24.985-65.51 24.985-90.508 0-24.992-24.992-24.992-65.529 0-90.515l90.515-90.508c24.992-25.005 65.516-24.985 90.502 0 25.005 24.985 24.992 65.504 0 90.489l-90.509 90.534z m452.541-452.554c-24.992 24.985-65.51 25.005-90.508 0-24.985-24.992-24.985-65.529 0.006-90.515l90.508-90.508c24.992-24.985 65.523-24.985 90.508 0 24.998 25.005 24.992 65.504 0 90.508l-90.514 90.515z"  horiz-adv-x="1024" />

    
    <glyph glyph-name="network" unicode="&#60107;" d="M512 864C248 864 32 648 32 384s216-480 480-480 480 216 480 480-216 480-480 480zM356 414c-12 36-24 36-60 18s-6-54 30-84 6-30 6-30c-138 66-162 120-162 120s-42 42-48 120c24 60 66 114 114 156 24-24 60-54 78-60 18-12 30 42 66 30 36-12 24 12 66 6 42 0 18-42-6-54-24-12-84 0-36-48 48-48 24 30 84 30 54 0 66-24 72-48 6-30-30-36-66-48-42-18-96-54-96-84-6-36-36-60-42-24z m210-252c-24-36-48-72-60-138s-42-18-54 0c-12 18-24 36-24 102s-42 24-60 114c-12 90 30 102 96 102s60-18 108-60 24-84-6-120z m258 78c-12-30-36-12-54 0s-12 36 0 42c18 12 66-12 54-42zM932 342v-12c0-12 0-18-6-24v-12c0-12-6-24-12-36-30 18-66 36-78 60-18 42-66 60-84 114-30 90 12 84 18 138 0 24-18 30-42 24-60-24-78-12-90 30s0 54 0 54c-42-6-48 36-24 48 12 12 24 36-18 66 60-12 120-36 168-72 12-6 18-12 24-18h6c24-18 42-42 54-60 0 0 6-6 6-12 6-6 6-12 12-18 6-6 6-12 12-12 0-6 6-12 12-18 0-6 6-12 12-18l6-12c6-12 6-24 12-36V504c0-12 6-18 6-24v-12c6-12 6-24 6-30V342z"  horiz-adv-x="1024" />

    
    <glyph glyph-name="state" unicode="&#58896;" d="M872.4672 650.43626667c-65.776 0-119.11466667-53.0272-119.11466667-118.4128 0-23.40266667 6.83093333-45.216 18.61333334-63.58186667l-81.79733334-81.79733333c-24.2304 16.98666667-53.78666667 26.9664-85.69706666 26.9664-37.2576 0-71.31626667-13.6-97.42933334-36.07573334l-36.72533333 36.72533334c8.49813333 15.1328 13.3472 32.56533333 13.3472 51.12853333 0 58.04906667-47.35466667 105.1168-105.7408 105.1168s-105.71733333-47.0688-105.71733333-105.1168c0-13.79413333 2.67733333-26.96426667 7.536-39.03253333L217.53706667 364.15999999999997c-18.896 12.53013333-41.59253333 19.84106667-66.0064 19.84106667-65.80266667 0-119.11466667-53.02826667-119.11466667-118.4128 0-65.41333333 53.312-118.41386667 119.11466667-118.41386667 65.776 0 119.11573333 53.0016 119.11573333 118.41386667 0 19.67466667-4.8352 38.22613333-13.38026667 54.55573333l59.5072 59.50613333c17.26186667-12.18773333 38.36266667-19.3536 61.14986667-19.3536 18.12266667 0 35.17866667 4.53546667 50.09066667 12.52266667l42.50986666-42.50453333c-9.57866667-19.55413333-14.96-41.51466667-14.96-64.72746667 0-81.75146667 66.66133333-148.02346667 148.90666667-148.02346667s148.88213333 66.272 148.88213333 148.02346667c0 28.67733333-8.20906667 55.44533333-22.40746666 78.12266667l84.3968 84.384c16.96213333-9.232 36.42666667-14.48426667 57.12533333-14.48426667 65.80266667 0 119.1168 53.0016 119.1168 118.4128 0 65.38666667-53.31413333 118.41386667-119.1168 118.41386667z"  horiz-adv-x="1024" />

    
    <glyph glyph-name="storagepool" unicode="&#58999;" d="M512 348.19003733c83.525632 0 161.54624 7.57486933 234.11643733 22.71914667 72.57565867 15.16066133 129.875968 37.535744 171.78077867 67.13070933v-89.849856c0-24.34116267-18.16439467-46.891008-54.44949333-67.67138133-36.29056-20.78037333-85.60093867-37.289984-147.996672-49.430528-62.33019733-12.12962133-130.17088-18.22993067-203.45105067-18.22993067-73.285632 0-141.12085333 6.10030933-203.51112533 18.22993067-62.33565867 12.20061867-111.64603733 28.65015467-147.99121067 49.430528-36.29056 20.78037333-54.460416 43.33021867-54.460416 67.67138133V438.04535467c41.910272-29.59496533 99.21604267-51.970048 171.78624-67.13070934 72.63573333-15.14973867 150.65634133-22.724608 234.176512-22.724608z m0-198.950912c83.525632 0 161.54624 7.57486933 234.11643733 22.73006934 72.57565867 15.14427733 129.875968 37.52482133 171.78077867 67.125248v-89.85531734c0-24.33024-18.16439467-46.891008-54.44949333-67.67138133-36.29056-20.76945067-85.60093867-37.289984-147.996672-49.41960533-62.33019733-12.140544-130.17088-18.22993067-203.45105067-18.22993067-73.285632 0-141.12085333 6.08938667-203.51112533 18.22993067-62.390272 12.12962133-111.706112 28.65015467-147.99121067 49.41960533-36.29056 20.78037333-54.460416 43.34114133-54.460416 67.67138133v89.85531734c41.910272-29.60042667 99.21604267-51.98097067 171.78624-67.125248 72.63573333-15.16066133 150.65634133-22.73006933 234.176512-22.73006934z m0 604.848128c73.28017067 0 141.12085333-6.10030933 203.51658667-18.235392 62.390272-12.13508267 111.70065067-28.65015467 147.99121066-49.42506666 36.27963733-20.78037333 54.45495467-43.33021867 54.45495467-67.66045867v-67.66592c0-24.33024-18.17531733-46.874624-54.45495467-67.66045867-36.29056-20.78037333-85.60093867-37.23537067-147.99121066-49.430528-62.390272-12.12416-130.23095467-18.169856-203.51658667-18.169856s-141.12085333 6.10577067-203.51112533 18.235392c-62.390272 12.13508267-111.706112 28.65015467-147.99121067 49.430528-36.29056 20.78037333-54.460416 43.32475733-54.460416 67.66045867V618.766336c0 24.33024 18.17531733 46.88008533 54.460416 67.66045867 36.28509867 20.774912 85.59547733 37.29544533 147.99121067 49.42506666 62.39573333 12.13508267 130.23095467 18.235392 203.51112533 18.235392z m0 0"  horiz-adv-x="1024" />

    
    <glyph glyph-name="finish" unicode="&#58909;" d="M512 384m-480 0a480 480 0 1 1 960 0 480 480 0 1 1-960 0ZM791.16259766 576.97485353c-16.47949219 17.30346679-43.42346191 17.63305664-60.23254395 0.74157714L440.72619628 286.44140625l-149.88098144 154.08325195c-15.57312012 15.98510742-41.69311523 15.16113281-58.33740234-1.97753906-16.64428711-17.13867188-17.46826171-43.91784668-1.8951416-59.98535156l183.16955566-188.36059571c15.57312012-15.98510742 41.69311523-15.07873536 58.33740235 1.97753907 3.7902832 3.95507813 12.0300293 14.91394043 13.67797851 16.56188963L790.42102051 515.01196289c16.8914795 16.97387695 17.13867188 44.65942384 0.74157715 61.96289064z m0-2e-8"  horiz-adv-x="1024" />

    
    <glyph glyph-name="excel" unicode="&#59112;" d="M233.6 548.8v232.96C233.6 840.832 281.664 888.96 340.608 888.96h597.12L1152 669.312v-441.792h-53.568V615.6800000000001h-133.888a78.848 78.848 0 0 0-80.32 80.32V835.328H340.672a53.696 53.696 0 0 1-53.568-53.504v-232.96h213.12c29.504 0 53.568-24.128 53.568-53.632v-374.848c0-29.44-24.064-53.504-53.568-53.504h-213.12v-80.32c0-29.44 24.064-53.568 53.568-53.568h704.256c29.44 0 53.504 24.064 53.504 53.568V282.75199999999995H1152v-296.32c0-58.944-48.128-107.136-107.072-107.136H340.672a107.328 107.328 0 0 0-107.136 107.136v80.32H54.144a53.696 53.696 0 0 0-53.568 53.568V495.232c0 29.504 24.064 53.568 53.568 53.568h179.392zM141.888 448l108.096-149.76L128 128h81.344l78.976 118.208L366.656 128H448L325.952 298.24 434.048 448H353.28L288.32 350.20799999999997 222.72 448H141.952z m795.84 365.888l139.264-144.64h-112.512a26.816 26.816 0 0 0-26.752 26.88v117.76zM736 448h192a32 32 0 1 0 0-64h-192a32 32 0 1 0 0 64z m0-128h192a32 32 0 1 0 0-64h-192a32 32 0 1 0 0 64z m0-128h192a32 32 0 1 0 0-64h-192a32 32 0 1 0 0 64z"  horiz-adv-x="1152" />

    
    <glyph glyph-name="memory" unicode="&#59201;" d="M955.0765625 457.846875H844.308125a36.9234375 36.9234375 0 0 1-36.9234375-36.9234375v-147.6928125a36.9234375 36.9234375 0 0 1 36.9234375-36.9225h110.7684375v-258.4621875A73.846875 73.846875 0 0 0 881.230625-96H142.769375a73.846875 73.846875 0 0 0-73.846875 73.846875V790.153125A73.846875 73.846875 0 0 0 142.7703125 864h552.96l259.3471875-297.12v-109.0340625zM179.691875 162.4603125a36.9234375 36.9234375 0 0 1-36.9225-36.9225v-110.76937499a36.9234375 36.9234375 0 0 1 36.9225-36.92343751h516.9234375a36.9234375 36.9234375 0 0 1 36.92343749 36.92343749V125.53874999000004a36.9234375 36.9234375 0 0 1-36.92343749 36.9225H179.691875z m0 627.6928125a36.9234375 36.9234375 0 0 1-36.9225-36.9234375v-221.53875a36.9234375 36.9234375 0 0 1 36.9225-36.92250001h36.9234375a36.9234375 36.9234375 0 0 1 36.92343749 36.92250001V753.230625a36.9234375 36.9234375 0 0 1-36.92343749 36.9234375h-36.9234375z m221.53875 0a36.9234375 36.9234375 0 0 1-36.9225-36.9234375v-221.53875a36.9234375 36.9234375 0 0 1 36.9225-36.92250001h36.9234375a36.9234375 36.9234375 0 0 1 36.9225 36.92250001V753.230625a36.9234375 36.9234375 0 0 1-36.9225 36.9234375h-36.9234375z m221.53875 0a36.9234375 36.9234375 0 0 1-36.9234375-36.9234375v-221.53875a36.9234375 36.9234375 0 0 1 36.9234375-36.92250001h36.9225a36.9234375 36.9234375 0 0 1 36.9234375 36.92250001V753.230625a36.9234375 36.9234375 0 0 1-36.9234375 36.9234375h-36.9225z"  horiz-adv-x="1024" />

    
    <glyph glyph-name="extract" unicode="&#58980;" d="M297.28 602.0266666699999l0.96 0.96L473.38666667 846.4c10.56 10.02666667 24.53333333 15.46666667 39.68 15.46666667 15.14666667 0 29.12-5.54666667 39.68-15.57333334l173.22666666-241.38666666 0.96-0.96c10.77333333-10.77333333 16.64-25.06666667 16.74666667-40.32 0-15.25333333-5.86666667-29.54666667-16.64-40.32-10.66666667-10.66666667-25.17333333-16.53333333-40.74666667-16.53333334-15.57333333 0-30.08 5.86666667-40.74666666 16.53333334l-76.05333334 74.98666666v-340.8c0-31.04-26.24-57.28-57.28-57.28s-57.28 26.24-57.28 57.28V596.48L378.66666667 521.28c-10.66666667-10.66666667-24.96-16.42666667-40.64-16.42666667-15.36 0-29.65333333 5.76-40.32 16.10666667-10.98666667 10.45333333-17.17333333 24.42666667-17.38666667 39.36-0.32 15.68 5.76 30.50666667 16.96 41.70666667z m2.02666667-448.42666667h425.28c22.4 0 41.38666667-18.98666667 41.38666666-41.38666667 0-22.4-18.98666667-41.38666667-41.38666666-41.38666666H299.30666667c-22.82666667 0-41.38666667 18.56-41.38666667 41.38666666 0 22.4 18.98666667 41.38666667 41.38666667 41.38666667z m622.82666666-87.36c0-88.21333333-71.78666667-160.10666667-160.10666666-160.10666667H261.86666667c-88.21333333 0-160.10666667 71.78666667-160.10666667 160.10666667v411.73333333c0 29.44 23.89333333 53.33333333 53.33333333 53.33333334s53.33333333-23.89333333 53.33333334-53.33333334V66.13333333000003c0-29.44 23.89333333-53.33333333 53.33333333-53.33333333h500.16c29.44 0 53.33333333 23.89333333 53.33333333 53.33333333V483.09333333c0 29.44 23.89333333 53.33333333 53.33333334 53.33333334 29.54666667 0 53.33333333-23.89333333 53.33333333-53.33333334v-416.85333333z"  horiz-adv-x="1024" />

    
    <glyph glyph-name="light" unicode="&#59058;" d="M325.51822222 81.46488889H698.59555555v-82.944H325.51822222z m82.83022223-124.24533334H615.53777778V-125.72444444999996H408.34844445zM121.17333333 454.54222222h-65.08088888c-22.86933333 0-41.41511111-18.54577778-41.41511112-41.41511111 0-22.86933333 18.54577778-41.41511111 41.41511112-41.41511111h65.08088888c22.86933333 0 41.41511111 18.54577778 41.41511112 41.41511111 0.11377778 22.86933333-18.54577778 41.41511111-41.41511112 41.41511111z m846.73422222 0h-65.08088888c-22.86933333 0-41.41511111-18.54577778-41.41511112-41.41511111 0-22.86933333 18.54577778-41.41511111 41.41511112-41.41511111h65.08088888c22.86933333 0 41.41511111 18.54577778 41.41511112 41.41511111 0 22.86933333-18.54577778 41.41511111-41.41511112 41.41511111zM512 703.26044445c-160.19911111 0-290.13333333-129.93422222-290.13333333-290.13333334s129.93422222-290.13333333 290.13333333-290.13333333 290.13333333 129.93422222 290.13333333 290.13333333-129.93422222 290.13333333-290.13333333 290.13333334z m0-497.43644445c-114.46044445 0-207.18933333 92.72888889-207.18933333 207.18933333S397.53955555 620.3164444500001 512 620.3164444500001s207.18933333-92.72888889 207.18933333-207.18933334S626.46044445 205.82399999999996 512 205.82399999999996z m0.11377778 539.87555555c22.86933333 0 41.41511111 18.54577778 41.41511111 41.41511112v65.08088888c0 22.86933333-18.54577778 41.41511111-41.41511111 41.41511112s-41.41511111-18.54577778-41.41511111-41.41511112v-65.08088888c0-22.86933333 18.54577778-41.41511111 41.41511111-41.41511112z m351.45955555-4.32355555c-16.15644445 16.15644445-42.43911111 16.15644445-58.59555555 0L758.89777778 695.40977778c-16.15644445-16.15644445-16.15644445-42.43911111 0-58.59555556 16.15644445-16.15644445 42.43911111-16.15644445 58.59555555 0l46.08 46.08c16.15644445 16.04266667 16.15644445 42.32533333 0 58.48177778z m-598.69866666-105.01688889c16.15644445 16.15644445 16.15644445 42.43911111 0 58.59555556l-46.08 46.08c-16.15644445 16.15644445-42.43911111 16.15644445-58.59555556 0s-16.15644445-42.43911111 0-58.59555556l46.08-46.08c16.15644445-16.27022222 42.43911111-16.27022222 58.59555556 0z"  horiz-adv-x="1024" />

    
    <glyph glyph-name="home" unicode="&#58887;" d="M962.4993189 420.89434112L543.0689189 842.26654777c-9.70903666 9.70903666-21.3598811 13.59265223-34.95253333 13.59265223-11.65084445 0-25.24349667-3.88361443-34.95253334-13.59265223L53.73345223 420.89434112c-11.65084445-11.65084445-13.59265223-27.18530333-13.59265223-40.77795555v-3.88361558c3.88361443-29.12711111 21.3598811-52.4288 46.60337778-52.4288h79.61410332v-333.99087332c0-38.83614777 31.0689189-69.90506667 69.90506667-69.90506666h135.9265189c38.83614777 0 69.90506667 31.0689189 69.90506666 69.90506666v97.09037 1.94180778c0 34.95253333 29.12711111 64.07964445 64.07964445 64.07964445s64.07964445-29.12711111 64.07964444-64.07964445v-99.03217778c0-38.83614777 31.0689189-69.90506667 69.90506667-69.90506666h135.9265189c38.83614777 0 69.90506667 31.0689189 69.90506666 69.90506666V321.86216334000005h79.61410333c25.24349667 0 46.60337778 23.30168889 46.60337777 52.4288v3.88361444c5.82542222 15.53445888 1.94180779 31.0689189-9.70903665 42.71976334z"  horiz-adv-x="1024" />

    
    <glyph glyph-name="start" unicode="&#58893;" d="M512 850.03377813C255.31733333 850.03377813 45.96622187 640.68266667 45.96622187 384S255.31733333-82.03377812999997 512-82.03377812999997 978.03377813 127.31733333 978.03377813 384 768.68266667 850.03377813 512 850.03377813z m222.09422187-500.62222293l-302.19377707-163.84c-23.66577813-10.92266667-50.9724448 5.46133333-50.9724448 32.768l9.10222187 342.24355627c0 25.48622187 30.9475552 41.87022187 52.7928896 27.30666666l291.2711104-178.40355626c25.48622187-14.5635552 23.66577813-45.51111147 0-60.07466667z"  horiz-adv-x="1024" />

    
    <glyph glyph-name="stop" unicode="&#58894;" d="M512 888.86992555C232.37973333 888.86992555 7.13007445 663.62026667 7.13007445 384s225.24965888-504.86992555 504.86992555-504.86992555 504.86992555 225.24965888 504.86992555 504.86992555S791.62026667 888.86992555 512 888.86992555z m-77.67229667-664.09813334c0-19.41807445-15.53445888-34.95253333-34.95253334-34.95253333h-48.54518442c-19.41807445 0-34.95253333 15.53445888-34.95253334 34.95253333V543.2282077899999c0 19.41807445 15.53445888 34.95253333 34.95253334 34.95253333h48.54518442c19.41807445 0 34.95253333-15.53445888 34.95253334-34.95253333v-318.45641558z m271.85303779 0c0-19.41807445-15.53445888-34.95253333-34.95253333-34.95253333h-48.54518557c-19.41807445 0-34.95253333 15.53445888-34.95253333 34.95253333V543.2282077899999c0 19.41807445 15.53445888 34.95253333 34.95253333 34.95253333h48.54518557c19.41807445 0 34.95253333-15.53445888 34.95253333-34.95253333v-318.45641558z"  horiz-adv-x="1024" />

    
    <glyph glyph-name="pause" unicode="&#58895;" d="M512 881.10269667C238.20515555 881.10269667 14.89730333 657.79484445 14.89730333 384S238.20515555-113.10269667 512-113.10269667 1009.10269667 110.20515554999997 1009.10269667 384 785.79484445 881.10269667 512 881.10269667z m170.87905223-634.97102222c0-19.41807445-15.53445888-34.95253333-34.95253333-34.95253333H374.13167445c-19.41807445 0-34.95253333 15.53445888-34.95253333 34.95253333V521.86832555c0 19.41807445 15.53445888 34.95253333 34.95253333 34.95253333H647.9265189c19.41807445 0 34.95253333-15.53445888 34.95253333-34.95253333v-275.7366511z"  horiz-adv-x="1024" />

    
    <glyph glyph-name="refresh" unicode="&#58906;" d="M325.973333 578.56c0 25.6-13.653333 49.493333-37.546666 64.853333l-1.706667 1.706667c63.146667 58.026667 143.36 88.746667 230.4 88.746667 98.986667 0 194.56-42.666667 261.12-119.466667 17.066667-18.773333 47.786667-22.186667 66.56-5.12s20.48 47.786667 5.12 66.56c-85.333333 97.28-204.8 151.893333-331.093333 151.893333-119.466667 0-232.106667-47.786667-314.026667-134.826666l-37.546667 22.186666c-23.893333 13.653333-51.2 13.653333-75.093333-1.706666-27.306667-10.24-40.96-37.546667-40.96-63.146667v-145.066667c0-25.6 13.653333-49.493333 37.546667-64.853333 11.946667-6.826667 25.6-10.24 37.546666-10.24s25.6 1.706667 37.546667 10.24l124.586667 73.386667c23.893333 13.653333 37.546667 39.253333 37.546666 64.853333zM942.08 312.32000000000005c-20.48 13.653333-49.493333 18.773333-73.386667 6.826667l-131.413333-59.733334c-25.6-11.946667-42.666667-35.84-44.373333-61.44s10.24-52.906667 30.72-68.266666l18.773333-13.653334c-63.146667-54.613333-143.36-83.626667-225.28-83.626666-98.986667 0-194.56 44.373333-261.12 121.173333-17.066667 18.773333-47.786667 22.186667-66.56 5.12s-20.48-47.786667-5.12-66.56c81.92-97.28 204.8-151.893333 331.093333-151.893333 112.64 0 220.16 44.373333 302.08 121.173333l22.186667-15.36c13.653333-10.24 29.013333-13.653333 44.373333-13.653333 11.946667 0 20.48 1.706667 25.6 10.24 25.6 10.24 42.666667 34.133333 44.373334 59.733333l17.066666 145.066667c3.413333 22.186667-8.533333 47.786667-29.013333 64.853333z"  horiz-adv-x="1024" />

    
    <glyph glyph-name="restore" unicode="&#58911;" d="M512 855.49511147C251.6764448 855.49511147 40.50488853 644.3235552 40.50488853 384S251.6764448-87.49511146999998 512-87.49511146999998 983.49511147 123.67644480000001 983.49511147 384 772.3235552 855.49511147 512 855.49511147z m274.88711147-466.03377814L548.40888853 178.28977812999995c-3.64088853-3.64088853-7.28177813-1.8204448-7.28177706 3.64088854v134.71288853h-9.10222294c-125.61066667 0-236.65777813-65.536-296.73244373-167.48088853 5.46133333 174.76266667 138.35377813 316.75733333 307.6551104 336.78222186v123.79022294c0 5.46133333 3.64088853 7.28177813 7.28177813 3.64088853l238.47822187-209.35111147c5.46133333-3.64088853 5.46133333-10.92266667-1.82044373-14.5635552z"  horiz-adv-x="1024" />

    
    <glyph glyph-name="warning" unicode="&#58912;" d="M956.67389667 75.25262222000003L579.96325888 766.53605888c-29.12711111 54.37060779-106.79940779 54.37060779-135.92651776 0L67.32610333 75.25262222000003c-27.18530333-52.4288 9.70903666-114.56663666 67.96326001-114.56663665h751.47946667c60.19603001 0 97.09036999 62.13783666 69.90506666 114.56663665zM512 77.19443001000002c-31.0689189 0-58.25422222 25.24349667-58.25422222 58.25422222 0 31.0689189 27.18530333 58.25422222 58.25422222 58.25422222s58.25422222-27.18530333 58.25422222-58.25422222-25.24349667-58.25422222-58.25422222-58.25422222z m58.25422222 234.95869554c0-29.12711111-27.18530333-52.4288-58.25422222-52.4288s-58.25422222 23.30168889-58.25422222 52.4288V566.52989667c0 29.12711111 27.18530333 52.4288 58.25422222 52.4288s58.25422222-23.30168889 58.25422222-52.4288v-254.37677112z"  horiz-adv-x="1024" />

    
    <glyph glyph-name="instantrecovery" unicode="&#58919;" d="M987.74281443-2.4196744500000023l-104.8576 93.20675555 42.71976335 42.71976335c17.47626667 17.47626667 9.70903666 48.54518557-15.53445888 52.4288l-182.52989668 40.77795555c-21.3598811 5.82542222-40.77795555-13.59265223-36.89434112-36.89434112l40.77795556-182.52989554c5.82542222-25.24349667 34.95253333-33.01072555 52.4288-15.53446001l42.71976334 42.71976334 106.79940779-97.09037c9.70903666-7.76723001 23.30168889-7.76723001 31.06891776 1.94180666l23.30168888 25.24349667c9.70903666 9.70903666 9.70903666 25.24349667 0 33.01072555zM634.33386667 213.12094777000004c-9.70903666 42.71976334 29.12711111 79.61410333 71.84687445 71.84687445l201.94796999-42.71976334c15.53445888 44.66156999 23.30168889 93.20675555 23.30168889 141.75194112 0 248.55134777-201.94796999 450.4993189-450.4993189 450.4993189S28.48995555 632.55134777 28.48995555 384c0-248.55134777 201.94796999-450.4993189 450.4993189-450.4993189 73.7886811 0 141.75194112 17.47626667 203.88977778 48.54518557l-48.54518556 231.0750811z m-126.2174811-21.3598811v128.15928888h-9.7090378c-120.39205888 0-227.19146667-62.13783666-283.5038811-159.22820778C220.72888889 325.74577778 346.94636999 461.67229667 508.11638557 481.09036999v118.45025223c0 5.82542222 3.88361443 7.76723001 7.76722886 3.88361444L743.0750811 403.41807445c5.82542222-3.88361443 5.82542222-9.70903666 0-13.59265223L515.88361443 187.87745223000002c-3.88361443-3.88361443-7.76723001-1.94180779-7.76722886 3.88361444z"  horiz-adv-x="1024" />

    
    <glyph glyph-name="ip" unicode="&#58961;" d="M129.70666667 56.32000000000005v-54.61333333c0-32.768 21.84533333-54.61333333 54.61333333-54.61333334h655.36c32.768 0 54.61333333 21.84533333 54.61333333 54.61333334v54.61333333H129.70666667zM260.77866667 820.90666667H184.32v-655.36h76.45866667V820.90666667zM512 427.69066667h103.76533333C746.83733333 427.69066667 839.68 493.22666667 839.68 629.76 839.68 771.75466667 746.83733333 820.90666667 604.84266667 820.90666667H430.08v-655.36H512V427.69066667z m0 327.68h87.38133333c109.22666667 0 163.84-32.768 163.84-125.61066667 0-92.84266667-49.152-136.53333333-158.37866666-136.53333333H512V755.37066667z"  horiz-adv-x="1024" />

    
    <glyph glyph-name="expand" unicode="&#59354;" d="M907.77045441 245.34052276V-11.5078125H650.86032104l98.65293504 98.61431122-124.3686676 122.25208282 61.65904997 61.63587571L809.11751938 146.6953125zM373.40232086-11.5078125H116.4921875V245.34052276l98.65293503-98.64521026 122.28298187 124.29914475 61.65904999-61.63587571-124.3686676-122.25208282zM116.4921875 522.65947724V779.5078125h256.91013337L274.74166107 680.88577652l124.36866761-122.25208283-61.65904999-61.6358757L215.14512253 621.3046875zM650.86032104 779.5078125h256.91013337v-256.84833527L809.11751938 621.3046875 686.82681274 496.99781799l-61.65904999 61.6358757 124.36866762 122.25208283z"  horiz-adv-x="1024" />

    
    <glyph glyph-name="password" unicode="&#58898;" d="M766.08-74.77333333000001H257.92c-62.29333333 0-112.96 53.44-112.96 119.36V402.34666667c0 65.81333333 50.66666667 119.25333333 112.96 119.25333333h29.33333333c-2.98666667 14.82666667-4.58666667 30.18666667-4.58666666 45.86666667v45.86666666c0 126.72 102.72 229.33333333 229.33333333 229.33333334s229.33333333-102.72 229.33333333-229.33333334v-45.86666666c0-15.68-1.6-31.04-4.58666666-45.86666667h29.33333333c62.29333333 0 112.96-53.44 112.96-119.25333333v-357.76c0-65.81333333-50.66666667-119.36-112.96-119.36zM466.13333333 213.01333333000002V108.79999999999995c0-25.28 20.58666667-45.86666667 45.86666667-45.86666667s45.86666667 20.58666667 45.86666667 45.86666667v104.32c27.84 15.78666667 46.72 45.12 46.72 79.25333333 0 50.66666667-41.49333333 91.73333333-92.69333334 91.73333334-51.2 0-92.69333333-41.06666667-92.69333333-91.73333334 0.10666667-34.13333333 19.09333333-63.57333333 46.93333333-79.36zM649.6 613.33333333c0 76.05333333-61.54666667 137.6-137.6 137.6s-137.6-61.54666667-137.6-137.6v-91.73333333h275.2v91.73333333z"  horiz-adv-x="1024" />

    
    <glyph glyph-name="physicaldevice" unicode="&#59407;" d="M873.59987305 142.92480468999997A60.27539063 60.27539063 0 0 0 933.87526367 82.64941406000003v-60.24902344A60.27539063 60.27539063 0 0 0 873.59987305-37.875H150.4006543A60.27539063 60.27539063 0 0 0 90.12526367 22.400390620000053V82.62304687000005a60.27539063 60.27539063 0 0 0 60.27539063 60.27539063h723.19921875z m0 241.07519531A60.27539063 60.27539063 0 0 0 933.87526367 323.72460937000005v-60.24902343a60.27539063 60.27539063 0 0 0-60.27539062-60.27539063H150.4006543A60.27539063 60.27539063 0 0 0 90.12526367 263.47558594v60.24902344A60.27539063 60.27539063 0 0 0 150.4006543 384h723.19921875zM933.87526367 625.07519531v-128.40820312h-0.52734376a60.27539063 60.27539063 0 0 0-59.74804686-52.39160156H150.4006543A60.27539063 60.27539063 0 0 0 90.65260742 496.69335938H90.12526367V624.38964844 625.07519531c0 19.77539063 9.75585938 38.75976563 26.84179688 50.15039063L297.76686523 795.75C307.65456055 802.34179687 319.30885742 805.875 331.20045898 805.875h361.59960938c11.89160156 0 23.51953125-3.53320313 33.43359375-10.125l180.79980468-120.52441406A60.27539063 60.27539063 0 0 0 933.87526367 625.07519531zM722.93776367 23.296875a30.13769531 30.13769531 0 1 1 0 60.27539063 30.13769531 30.13769531 0 0 1 0-60.27539063z m120.52441406 0a30.13769531 30.13769531 0 1 1 0 60.27539063 30.13769531 30.13769531 0 0 1 0-60.27539063zM722.93776367 505.47363281a30.13769531 30.13769531 0 1 1 0 60.27539062 30.13769531 30.13769531 0 0 1 0-60.27539062z m120.52441406 0a30.13769531 30.13769531 0 1 1 0 60.27539062 30.13769531 30.13769531 0 0 1 0-60.27539062zM722.93776367 264.3984375a30.13769531 30.13769531 0 1 1 0 60.27539063 30.13769531 30.13769531 0 0 1 0-60.27539063z m120.52441406 0a30.13769531 30.13769531 0 1 1 0 60.27539063 30.13769531 30.13769531 0 0 1 0-60.27539063z"  horiz-adv-x="1024" />

    
    <glyph glyph-name="networkPort" unicode="&#58888;" d="M921.70214844 641.46240234H764.984375v71.64228516c0 22.3875-17.90947266 40.29785156-35.81982422 40.29785156h-26.86640625V793.70214844C702.29814453 816.08964844 684.38867188 834 666.47744141 834H361.99970703c-22.3875 0-35.82070313-17.91035156-35.82070312-40.29785156v-40.29873047H299.31347656c-22.38837891 0-35.82070313-17.91123047-35.82070312-40.29873047v-71.64228516H106.77587891c-22.3875 0-35.82070313-17.91035156-35.82070313-40.29785156V-25.702148439999974c0-22.38837891 17.91035156-40.29873047 35.82070313-40.29873047h819.40341797c22.3875 0 35.82070313 17.91035156 35.82070312 40.29785157V601.16542969c-4.47802734 22.3875-22.38837891 40.29785156-40.29785156 40.29785156z m-17.91123047-653.73046875H111.25390625V569.82011719h170.14921875c22.3875 0 40.29785156 17.91035156 40.29785156 40.29785156v76.1203125h26.86640625c22.3875 0 40.29785156 17.91035156 40.29785157 40.29785156V766.83574219h246.26953125v-40.29785157c0-22.38837891 17.91035156-40.29873047 40.29785156-40.29873046h26.86552734v-76.1194336c0-22.38837891 17.91123047-40.29873047 40.29873047-40.29873047h165.67207031v-582.0899414zM241.10439453 475.79121094v-322.38808594c0-22.38837891 17.91035156-40.29785156 35.82070313-40.29785156h510.44765625c17.91123047 0 35.82158203 17.90947266 35.82158203 40.29785156V475.79121094c0 22.3875-17.91035156 40.29785156-35.82158203 40.29785156H276.92509766c-17.91035156 0-35.82070313-17.91035156-35.82070313-40.29785156z m71.64228516-40.29785157h434.32822265v-241.7915039h-49.25390625v71.64140625c0 22.38837891-17.91035156 40.29785156-35.82070312 40.29785156s-35.82158203-17.90947266-35.82158203-40.29785156v-71.64140625h-62.68623047v71.64140625c0 22.38837891-17.91035156 40.29785156-35.82070313 40.29785156s-35.82070313-17.90947266-35.82070312-40.29785156v-71.64140625h-58.20996094v71.64140625c0 22.38837891-17.90947266 40.29785156-35.81982422 40.29785156s-35.82158203-17.90947266-35.82158203-40.29785156v-71.64140625H308.26953125V435.49248047z"  horiz-adv-x="1029" />

    
    <glyph glyph-name="del" unicode="&#58883;" d="M517.59 874.391c-100.299 0-181.703-79.514-185.167-179.34H98.603c-25.979 0-47.23500001-21.099-47.235-47.236 0-25.98000001 21.099-47.237 47.23600001-47.237h52.11699999v-528.416c0-99.19600001 67.233-180.285 150.37-180.285h423.55c82.98000001 0 150.37 80.616 150.36999999 180.285V600.2629999999999h47.23600001c25.98000001 0 47.23599999 21.10000001 47.236 47.23699999 0 25.98000001-21.099 47.23599999-47.236 47.23600001H702.441C699.449 794.87600001 617.888 874.39 517.59 874.39z m-96.677-179.34c3.464 51.17200001 45.19 90.85 96.834 90.85s93.36999999-39.835 96.362-90.85H420.913z m-119.98-714.842c-29.44400001 0-61.88 37.789-61.88 91.953V600.2629999999999h547.31100001V71.69000000000005c0-54.00700001-32.43600001-91.954-61.88000002-91.954H300.933v0.473z m0 0M364.387 93.73299999999995c21.57 0 39.363 21.571 39.363 48.653V419.978c0 27.082-17.635 48.654-39.363 48.654-21.57199999 0-39.36400001-21.57199999-39.364-48.654v-277.592c0-26.92400001 17.32-48.653 39.364-48.653z m142.49600001 0c21.571 0 39.363 21.571 39.363 48.653V419.978c0 27.082-17.635 48.654-39.363 48.654-21.571 0-39.36400001-21.57199999-39.36400001-48.654v-277.592c0-26.92400001 17.793-48.653 39.36400001-48.653z m149.89599999 0c21.571 0 39.36400001 21.571 39.364 48.653V419.978c0 27.082-17.635 48.654-39.364 48.654-21.571 0-39.363-21.57199999-39.363-48.654v-277.592c0-26.92400001 17.162-48.653 39.363-48.653z m0 0"  horiz-adv-x="1024" />

    
    <glyph glyph-name="scan" unicode="&#59290;" d="M681.49333333 500.05333333c23.36-33.81333333 35.94666667-73.92 35.94666667-115.94666666 0-54.72-21.33333333-106.13333333-59.94666667-144.74666667s-90.02666667-59.94666667-144.74666666-59.94666667-106.13333333 21.33333333-144.74666667 59.94666667c-38.61333333 38.61333333-59.94666667 90.02666667-59.94666667 144.74666667s21.33333333 106.13333333 59.94666667 144.74666666c34.66666667 34.66666667 79.57333333 55.36 127.89333333 59.30666667l-5.44 68.05333333c-140.37333333-11.30666667-250.66666667-128.85333333-250.66666666-272.10666666 0-150.72 122.24-272.96 272.96-272.96s272.96 122.24 272.96 272.96c0 57.38666667-17.70666667 110.50666667-47.89333334 154.45333333l-56.32-38.50666667zM512.10666667 860.48v-442.56c-18.88 0-34.13333333-15.25333333-34.13333334-34.13333333s15.25333333-34.13333333 34.13333334-34.13333334 34.13333333 15.25333333 34.13333333 34.13333334c0 8.21333333-2.88 15.68-7.68 21.54666666l343.89333333 278.61333334 0.42666667 0.42666666c0.10666667 0 0.10666667 0.10666667 0.21333333 0.10666667C795.73333333 792.53333333 662.18666667 861.65333333 512.42666667 861.65333333h-0.32v-1.17333333zM906.02666667 653.86666667l-0.42666667-0.42666667c-0.10666667 0-0.10666667-0.10666667-0.21333333-0.10666667l-55.57333334-38.18666666c15.25333333-22.4 28.37333333-46.18666667 38.93333334-71.36 21.33333333-50.34666667 32.10666667-103.78666667 32.10666666-158.93333334s-10.77333333-108.69333333-32.10666666-158.93333333c-20.58666667-48.64-50.02666667-92.37333333-87.57333334-129.81333333-37.54666667-37.54666667-81.28-66.98666667-129.81333333-87.57333334-50.34666667-21.33333333-103.78666667-32.10666667-158.93333333-32.10666666S403.73333333-12.799999999999955 353.49333333 8.533333330000005c-48.64 20.58666667-92.37333333 50.02666667-129.81333333 87.57333334-37.54666667 37.54666667-66.98666667 81.28-87.57333333 129.81333333-21.33333333 50.34666667-32.10666667 103.78666667-32.10666667 158.93333333s10.77333333 108.69333333 32.10666667 158.93333334c20.58666667 48.64 50.02666667 92.37333333 87.57333333 129.81333333 37.54666667 37.54666667 81.28 66.98666667 129.81333333 87.57333333 40.32 17.06666667 82.66666667 27.41333333 126.29333334 30.82666667l-5.33333334 66.88-0.10666666 1.17333333C228.8 840.74666667 35.62666667 635.41333333 35.62666667 384.85333333c0-263.25333333 213.44-476.8 476.8-476.8s476.8 213.44 476.8 476.8c-0.10666667 99.84-30.72 192.42666667-83.2 269.01333334z"  horiz-adv-x="1024" />

    
    <glyph glyph-name="error" unicode="&#59013;" d="M512 384m-480 0a480 480 0 1 1 960 0 480 480 0 1 1-960 0ZM567.88839325 384l153.1607135-152.23660702c15.50892837-15.3482146 15.9508927-40.70089325 1.04464324-56.57142865a38.1294646 38.1294646 0 0 0-54.96428594-0.88392865L512 328.43303595l-155.0892854-154.12500029a38.1294646 38.1294646 0 0 0-55.04464324 0.88392867 40.86160703 40.86160703 0 0 0 1.0848219 56.57142865L456.11160675 384 302.95089325 536.2366070200001a40.86160703 40.86160703 0 0 0-1.04464324 56.57142865 38.1294646 38.1294646 0 0 0 54.96428594 0.88392865L512 439.56696405l155.0892854 154.12500029a38.1294646 38.1294646 0 0 0 55.04464324-0.88392867c14.86607163-15.8705354 14.4241073-41.22321405-1.0848219-56.57142865L567.88839325 384z"  horiz-adv-x="1024" />

    
    <glyph glyph-name="client" unicode="&#58977;" d="M841.17333333 140.69333332999997h-219.73333333v-97.38666666h48.64c8.85333333 0.32 17.28-4.26666667 21.76-11.94666667 4.58666667-7.68 4.58666667-17.17333333 0-24.85333333-4.58666667-7.68-12.90666667-12.26666667-21.76-11.94666667H378.02666667c-13.44 0-24.32 10.88-24.32 24.32s10.88 24.32 24.32 24.32H426.66666667v97.38666667H182.61333333c-53.76 0-97.38666667 43.62666667-97.38666666 97.38666666V676.16c0 53.76 43.62666667 97.28 97.38666666 97.28h658.66666667c53.76 0 97.28-43.52 97.38666667-97.28v-438.08c-0.10666667-53.76-43.73333333-97.38666667-97.49333334-97.38666667zM133.86666667 286.72v-48.74666667c0-26.88 21.76-48.64 48.64-48.64h658.66666666c26.88 0 48.74666667 21.86666667 48.74666667 48.64v48.74666667H133.86666667z m0 0"  horiz-adv-x="1024" />

    
    <glyph glyph-name="removemigration" unicode="&#58946;" d="M713.94796999 393.31944334c-137.09160334 0-248.55134777-111.07138333-248.55134777-248.55134892 0-137.09160334 111.07138333-248.55134777 248.55134777-248.55134775 137.09160334 0 248.55134777 111.07138333 248.55134891 248.55134775s-111.45974557 248.55134777-248.55134891 248.55134892z m113.78991446-329.71889778c8.93231445-8.93231445 8.93231445-23.69004999 0-32.62236444-8.93231445-8.93231445-23.69004999-8.93231445-32.62236445 0l-81.16755001 81.55591111-81.16754887-81.16755001c-8.93231445-8.93231445-23.69004999-8.93231445-32.62236445 0-8.93231445 8.93231445-8.93231445 23.69004999 0 32.62236444l81.16754888 81.16755-81.16754888 80.77918778c-8.93231445 8.93231445-8.93231445 23.69004999 0 32.62236445 8.93231445 8.93231445 23.69004999 8.93231445 32.62236445 0l81.16754887-81.16755001 81.16755001 81.16755001c8.93231445 8.93231445 23.69004999 8.93231445 32.62236445 0 8.93231445-8.93231445 8.93231445-23.69004999 0-32.62236445l-81.16755002-81.16755001 81.16755002-81.16754887z m0 0M708.12254777 493.90506667c34.56417223 0 67.57489778-5.04869888 99.03217778-14.36937445V801.09899889c0 31.0689189-25.24349667 56.31241443-56.31241444 56.31241443H694.52989667c-31.0689189 0-56.31241443-25.24349667-56.31241557-56.31241443v-314.1844389c22.91332779 4.66033778 46.21501667 6.99050667 69.90506667 6.99050668zM245.58402333 407.68881777h168.54888334v-76.11884999c45.43829333 72.23523555 117.28516779 126.60584334 201.55960888 149.90753109l-201.55960888 151.07261668v-112.23646777H245.58402333v-112.62483001zM189.27160889 576.23770111h168.54888334V801.09899889c0 31.0689189-25.24349667 56.31241443-56.31241557 56.31241443H133.34755555c-31.0689189 0-56.31241443-25.24349667-56.31241443-56.31241443v-673.80717113c0-31.0689189 25.24349667-56.31241443 56.31241443-56.31241444h168.54888335c31.0689189 0 56.31241443 25.24349667 56.31241443 56.31241444v224.47293668H189.27160889v224.47293667z"  horiz-adv-x="1024" />

    
    <glyph glyph-name="password1" unicode="&#58907;" d="M782.3566317 547.33482667h-5.55721007v70.52765867c0 147.23633303-119.80587615 267.03371378-267.04949096 267.03371378-147.27881008 0-267.08468622-119.79738075-267.08468622-267.03371378v-70.52644503h-5.5584237c-57.51876267 0-104.33816652-46.81454933-104.33816653-104.32967112V19.891389640000057c0-57.51390815 46.81819022-104.32724385 104.33816653-104.32724385h545.24981095c57.51876267 0 104.33816652 46.8133357 104.33816652 104.32724385V443.00636919c0 57.51512178-46.81819022 104.32967111-104.33816652 104.32967112z m-469.44893155 70.52765867c0 108.5154797 88.31946903 196.79368533 196.84223052 196.79368533 108.52033422 0 196.80703525-88.27941925 196.80703525-196.79368533v-70.52644503H312.90770015v70.52644503zM816.44870163 19.891389640000057c0-18.79184118-15.29658785-34.08721541-34.09206993-34.08721541H237.10682075c-18.79548208 0-34.09328355 15.29537422-34.09328357 34.08721541V443.00636919c0 18.79426845 15.29780148 34.0908563 34.09328357 34.0908563h545.24981095c18.79548208 0 34.09206992-15.29537422 34.09206993-34.0908563V19.891389640000057zM527.29294697 316.01580564000005v54.45192059c0 9.70660978-7.85339733 17.56243437-17.56122075 17.56243436s-17.56122075-7.85461097-17.56122074-17.56243436v-54.45192059c-40.03764148-8.15801837-70.2424557-43.61299437-70.2424557-86.02449541 0-42.40907378 30.20602785-77.86647703 70.24366933-86.02449541v-54.45192059c0-9.70660978 7.85339733-17.56122075 17.56122074-17.56122074s17.56000711 7.85461097 17.56000712 17.56122074v54.45192059c40.03764148 8.15801837 70.24488297 43.61542163 70.24488295 86.02449541 0 42.41150103-30.20724148 77.86647703-70.24488295 86.02449541z m-17.56122075-138.70208948c-29.05065245 0-52.68366222 23.62936889-52.68366222 52.67759407 0 29.04943882 23.63300978 52.6788077 52.68366222 52.6788077s52.68366222-23.62936889 52.68366223-52.6788077c0-29.04822518-23.63179615-52.67759408-52.68366223-52.67759407z"  horiz-adv-x="1024" />

    
    <glyph glyph-name="extinguish" unicode="&#58942;" d="M719.58054182 928.79718518C509.35661436 928.79718518 338.97049596 758.4110667699999 338.97049596 548.18713931S509.35661436 167.57709346000001 719.58054182 167.57709346000001s380.61004588 170.38611841 380.61004587 380.61004586S929.80446822 928.79718518 719.58054182 928.79718518z m0-652.741552C569.20684369 276.05563318 447.44903462 397.81344117 447.44903462 548.18713931S569.20684369 820.31864653 719.58054182 820.31864653s272.1315072-121.757808 272.1315072-272.13150722S869.95423996 276.05563318 719.58054182 276.05563318zM472.69834983 113.33782412999994h491.89406399v-112.21917763H472.69834983zM581.17688849-51.250303890000055h274.93698667v-112.21917759H581.17688849z"  horiz-adv-x="1389" />

    
    <glyph glyph-name="sanresource" unicode="&#58943;" d="M483.39917876 406.88065598V867.35387004c-253.97528764-14.87242733-455.89708218-225.3744664-455.8970805-483.35387004 0-76.07818245 17.73250827-148.15225057 48.62139459-212.21808998L483.39917876 406.88065598zM546.32098481 416.03291971h449.03288523c-15.44444316 241.39092709-208.21397397 434.16045791-449.03288523 450.74893279v-450.74893279zM516.00411433 353.11111367l-408.4197193-235.67076183c86.94649543-130.99175814 235.09874599-217.36623771 404.41560497-217.36623773 256.83537026 0 467.33740933 200.20574531 483.35387004 453.60901542h-479.34975571z"  horiz-adv-x="1024" />

    
    <glyph glyph-name="adapter" unicode="&#58944;" d="M852.51534697 823.1073813200001H171.48465303c-36.45419732 0-65.86610725-29.82616178-65.86610725-65.86610726V11.172977779999997c0-36.45419732 29.82616178-65.86610725 65.86610725-65.86610726h681.44494578c36.45419732 0 65.86610725 29.82616178 65.86610725 65.86610726V757.24127406c0 36.03994548-29.82616178 65.86610725-66.28035909 65.86610726zM424.17852325 627.99457302l-174.40019555-174.40019554c-4.97102697-4.97102697-12.84181925-4.97102697-17.81284621 0l-40.5967206 40.5967206c-4.97102697 4.97102697-4.97102697 12.84181925 0 17.81284622L365.76895644 686.40413984c4.97102697 4.97102697 12.84181925 4.97102697 17.81284742 0l40.59671939-40.59671939c4.97102697-4.97102697 4.97102697-12.84181925 0-17.81284743zM553.42522429 90.70940917999997c0-7.04228861-5.79953186-12.42756741-12.4275674-12.4275674h-57.16681008c-7.04228861 0-12.42756741 5.79953186-12.42756742 12.4275674v246.89433957c0 7.04228861 5.79953186 12.42756741 12.42756742 12.42756741H540.99765689c7.04228861 0 12.42756741-5.79953186 12.4275674-12.42756741v-246.89433957z m279.20601482 403.4816889l-40.5967206-40.5967206c-4.97102697-4.97102697-12.84181925-4.97102697-17.81284621 0l-174.40019555 174.40019554c-4.97102697 4.97102697-4.97102697 12.84181925 0 17.81284743L640.41819614 686.40413984c4.97102697 4.97102697 12.84181925 4.97102697 17.81284742 0l174.40019555-174.40019554c4.97102697-4.97102697 4.97102697-13.25607231 0-17.81284622z"  horiz-adv-x="1024" />

    
    <glyph glyph-name="unassign" unicode="&#58947;" d="M517.43706112 285.35618333h-152.62606222l93.20675555-93.20675556-61.36111445-61.36111332-154.56787001 154.56786888V372.34915555h361.17617778c41.5546789 26.40858112 90.87658667 41.5546789 143.6937489 41.5546789 78.44901888 0 148.74244779-33.39908779 198.06435556-86.60461112 3.49525333 22.91332779 5.43706112 46.60337778 5.43705998 70.68179 0 248.16298667-202.72469333 450.88768-450.88768 450.88768-248.16298667 0-450.88768-202.72469333-450.88768-450.88768 0-248.16298667 202.72469333-450.88768 450.88768-450.88768 19.80643555 0 39.22451001 1.16508445 58.64258446 3.88361444-50.09863111 48.93354667-81.16755001 117.28516779-81.16755 193.01565668 0.3883611 51.65207666 15.14609778 100.19726222 40.38959445 141.36357888z m-274.95992889 225.24966001h393.02181888l-93.20675556 93.20675556 61.36111446 61.36111331 154.56786887-154.56786887v-86.99297223H242.47713223v86.99297223zM753.5608411 361.08667220999996c-121.94550557 0-220.97768334-99.03217778-220.9776822-220.9776822s99.03217778-220.97768334 220.9776822-220.97768334 220.97768334 99.03217778 220.97768335 220.97768334-98.64381667 220.97768334-220.97768335 220.9776822z m118.45025223-284.66896554c15.14609778-15.14609778 15.14609778-39.61287111 0-54.75896889s-39.61287111-15.14609778-54.75896888 0l-63.69128335 63.69128334-63.6912822-63.69128334c-15.14609778-15.14609778-39.61287111-15.14609778-54.75896889 0-15.14609778 15.14609778-15.14609778 39.61287111 0 54.75896889l63.6912822 63.69128334-63.6912822 63.6912822c-15.14609778 15.14609778-15.14609778 39.61287111 0 54.75896889s39.61287111 15.14609778 54.75896889 0l63.6912822-63.6912822 63.69128335 63.6912822c15.14609778 15.14609778 39.61287111 15.14609778 54.75896888 0 15.14609778-15.14609778 15.14609778-39.61287111 0-54.75896889l-63.69128334-63.6912822 63.69128334-63.69128334z"  horiz-adv-x="1024" />

    
    <glyph glyph-name="snapshotstrategy" unicode="&#58949;" d="M958.35745303 371.15818075000004h-112.67661035v18.64135111c0 41.42522429-33.96868384 74.97965629-74.9796575 74.97965629h-225.35322192c-41.42522429 0-74.97965629-33.96868384-74.97965628-74.97965629v-18.64135111H358.10594726c-20.71261275 0-37.69695406-16.98434253-37.69695407-37.69695528v-356.67118458c0-20.71261275 16.98434253-37.69695406 37.69695407-37.69695407h600.66575882c20.71261275 0 37.69695406 16.98434253 37.69695407 37.69695407v356.67118458c-0.41425184 20.71261275-17.39859437 37.69695406-38.11120712 37.69695528z m-290.80507734-356.67118459c-88.23572859 0-159.48711466 71.25138606-159.48711465 159.48711466s71.25138606 159.48711466 159.48711465 159.48711465 159.48711466-71.25138606 159.48711588-159.48711465-71.25138606-159.48711466-159.48711588-159.48711466zM597.95799822 506.61866549h44.73924267v81.60769183l178.95697067 178.95697067v-264.29293272c17.81284622-4.97102697 33.554432-15.74158578 44.73924266-29.82616178V843.40574223H237.97279645L14.69083497 620.1237807499999v-625.9351455h267.60695109v44.73924267H90.91324799l178.54271883 178.95697067h0.41425184l12.01331556 12.01331556v276.72050134h0.8285049v68.76587259h314.83170725v-68.76587259zM237.97279645 249.36802016000001l-178.95697067-178.95697067V575.3845380800001H237.97279645v-326.01651792zM237.97279645 620.1237807499999H78.07142875L237.97279645 780.4394003V620.1237807499999z m44.73924267 0V798.66649956h507.04475023L610.79981868 620.1237807499999H282.71203912zM667.96662875 170.66009243999997m-90.30699023 0a90.30699023 90.30699023 0 1 1 180.61397925 0 90.30699023 90.30699023 0 1 1-180.61397925 0Z"  horiz-adv-x="1024" />

    
    <glyph glyph-name="timeview" unicode="&#58951;" d="M446.95687387 350.06445593v-305.89122314c0-28.7509466 5.65592402-33.93554407 33.93554406-33.93554406h385.0741593c27.80829353 0 33.93554407 5.18459746 33.93554408 33.93554406v305.89122314c0 27.80829353-5.18459746 33.93554407-33.93554408 33.93554407h-385.0741593c-27.80829353 0-33.93554407-4.71326955-33.93554406-33.93554407z m399.68529724-260.64383106h-345.95401912c37.70616053 55.14525911 105.10592075 147.05402429 122.07369277 147.05402428 16.49644549 0 72.58435769-74.4696666 98.03601711-100.39265118 0 0 32.52156306 43.83341109 49.96066164 43.83341109 17.43909857 0 75.41231969-90.02345763 75.8836476-90.49478419z m-101.33530565 192.77274293c0 23.09502258 18.85307957 41.94810354 41.94810355 41.94810355s41.94810354-18.85307957 41.94810216-41.94810355-18.85307957-41.94810354-41.94810216-41.94810354c-23.56635051 0-41.94810354 18.85307957-41.94810355 41.94810354z m226.23696046 63.15781859l-51.84597058 9.89786701v-311.07582061c0-14.13981003-0.94265446-30.16492759-12.2545011-41.476777-10.84052148-10.84052148-26.86563906-11.78317456-41.00544908-11.78317456h-31.10758207l66.45710715-12.72582903c27.3369656-5.18459746 34.4068706-1.41398101 39.59146806 26.86563905l57.03056667 300.23529913c5.65592402 27.80829353 1.41398101 34.4068706-26.86563905 40.06279601zM370.13057317 216.20758720000003c-70.69905013 31.57890861-120.18838525 102.27795873-120.18838524 184.76018483 0 111.70449922 90.49478418 201.72795685 201.72795549 201.72795688 79.18293616 0 147.99667876-45.71871863 180.98956837-112.17582717l8.483886-1.88530753h-7.54123155c4.24194301-8.95521257 8.01255949-17.91042649 10.84052147-27.80829352h222.93767053v141.39810028c0 25.92298459-21.20971504 47.60402755-47.60402617 47.60402754h-142.34075474v23.56635052c0 52.31729711-42.89075662 95.20805373-95.20805374 95.20805373h-285.15283602c-52.31729711 0-95.20805373-42.89075662-95.20805371-95.20805373v-23.56635052H59.99740565c-25.92298459 0-47.60402755-21.20971504-47.60402617-47.60402754v-451.53126643c0-25.92298459 21.20971504-47.60402755 47.60402617-47.60402755h310.13316752v113.11848021zM375.78649719 416.52156306c0 32.05023652 6.59857847 37.23483261 37.23483261 37.23483262h139.04146482c-19.79573404 34.4068706-56.55924012 57.50189458-98.97867019 57.50189457-63.15781858 0-114.53246123-51.37464265-114.53246123-114.53246123 0-33.46421754 14.61113657-63.62914512 37.23483399-84.36753363v104.16326767z"  horiz-adv-x="1024" />

    
    <glyph glyph-name="iscsitargetlist" unicode="&#58952;" d="M92.99029663 204.42441264h195.60070494c17.91042649 0 32.52156306 21.68104158 32.52156305 48.0753541s-14.61113657 48.07535409-32.52156305 48.0753541H92.99029663c-17.91042649 0-32.52156306-21.68104158-32.52156306-48.0753541 0-26.86563906 14.61113657-48.07535409 32.52156306-48.0753541zM101.94550918 676.69406757h747.52462394c23.09502258 0 41.47677562 21.68104158 41.47677563 48.0753541s-18.38175303 48.07535409-41.47677563 48.0753541H101.94550918c-23.09502258 0-41.47677562-21.68104158-41.47677561-48.0753541 0-26.86563906 18.38175303-48.07535409 41.47677561-48.0753541zM410.66469434 536.7099483H99.11754718c-21.68104158 0-39.12014154-21.68104158-39.12014153-48.07535409s17.43909857-48.07535409 39.12014153-48.07535409h311.54714716c21.68104158 0 39.12014154 21.68104158 39.12014154 48.07535409s-17.43909857 48.07535409-39.12014154 48.07535409zM290.94763703 64.44029336999995H85.92039162c-14.13981003 0-25.45165805-21.68104158-25.45165805-48.0753541s11.31184801-48.07535409 25.45165805-48.0753541h205.02724541c14.13981003 0 25.45165805 21.68104158 25.45165805 48.0753541 0.47132654 26.39431251-11.31184801 48.07535409-25.45165805 48.0753541zM868.3232127 157.76303955000003l-11.78317456 11.78317456 150.82463937 150.82464077c11.78317456 11.78317456 8.95521257 29.69360106-2.827962 44.30473762L808.93601058 560.2762988100001c-14.61113657 14.61113657-32.52156306 14.61113657-44.30473762 2.827962l-150.82464076-150.82464075-11.78317457 11.78317456c-14.61113657 14.61113657-32.52156306 14.61113657-44.304739 2.827962l-112.6471523-112.6471523c-8.95521257-8.95521257-8.95521257-17.91042649-6.12725194-29.69360106l26.86563905-156.95189131-41.47677561-41.476777c-14.61113657-14.61113657-14.61113657-35.34952507 0-47.13269964l59.38720211-59.3872021c14.61113657-14.61113657 35.34952507-14.61113657 47.13269963 0l41.47677701 41.47677561 156.95189131-26.86563906c11.78317456-2.82796201 23.56635051-2.82796201 29.69360105 6.12725194l112.64715231 112.64715231c11.31184801 12.2545025 11.31184801 30.16492759-3.29928855 44.77606554zM808.93601058 397.66848348c-6.12725056-6.12725056-11.78317456-6.12725056-17.91042648 0l-32.52156308 32.52156308c-6.12725056 6.12725056-6.12725056 11.78317456 0 17.9104251l26.86563907 26.86563906c6.12725056 6.12725056 11.78317456 6.12725056 17.91042648 0l32.52156307-32.52156306c6.12725056-6.12725056 6.12725056-11.78317456 0-17.91042512l-26.86563906-26.86563906z m82.95355262-82.95355262c-6.12725056-6.12725056-11.78317456-6.12725056-17.91042649 0l-32.52156306 32.52156308c-6.12725056 6.12725056-6.12725056 11.78317456 0 17.91042649l26.86563905 26.86563906c6.12725056 6.12725056 11.78317456 6.12725056 17.9104265 0l32.52156306-32.52156308c6.12725056-6.12725056 6.12725056-11.78317456 0-17.91042649l-26.86563906-26.86563906z m0 0"  horiz-adv-x="1024" />

    
    <glyph glyph-name="manageriscsitarget" unicode="&#58953;" d="M924.5261963 566.93379223l-252.30723603 290.74984328c-18.11663203 20.76784641-49.04746604 22.97719087-69.81531117 4.86056013l-217.39957917-188.67808963c-2.20934575-1.76747583-5.7442974-1.76747583-7.51177452 0.44186862l-9.72111895 11.04672616c-18.11663203 20.76784641-49.04746604 22.97719087-69.81531245 4.86056013l-155.9797798-135.65380203c-12.37233334-11.04672615-17.6747621-27.39588236-14.13980916-42.41943008 0-1.3256072-0.44186863-2.65121438 0-4.4186915l17.6747621-220.05079356c0-1.76747583-0.44186863-3.53495294-1.76747582-4.4186902l-57.4429791-49.9312046c-20.76784641-18.11663203-22.97719087-49.04746604-4.86055884-69.81531115L153.90654893 79.11034627000004c18.11663203-20.76784641 49.04746604-22.97719087 69.81531244-4.86056013l57.44297781 49.9312046c1.3256072 1.3256072 3.09308301 1.76747583 4.86056012 1.32560718 3.53495294-0.88373856 6.62803595 1.76747583 6.62803595 5.30242877V149.80939597999998l-0.88373856 61.8616693c0.44186863 16.79102483 23.41906079 46.39625165 39.7682157 45.5125131 10.16298889-0.44186863 41.0938229 0 53.90802617 18.55850066 8.8373817 12.81420326 18.11663203 39.32634707 17.6747621 45.07064447 0 0-8.39551178 53.90802617-4.41869019 64.07101505 5.30242877 13.2560719 44.62877583 38.44260851 75.1177412 53.90802487 19.0003693 13.2560719 48.6055974 19.88410785 64.07101376 16.34915621s46.39625165-45.07064446 69.37344252-44.1869072c30.93083402 1.3256072 51.25681179 38.44260851 86.16446735 45.51251439 29.16335819 5.7442974 119.74651574-54.34989479 119.74651704-54.3498948 1.3256072 0 51.69868042 48.6055974 53.02428761 49.48933467l53.46615623 46.39625165c20.32597648 16.79102483 22.53532223 48.16372748 4.86056012 68.93157388z m-258.05153342 58.76858501c-7.95364315-6.62803595-19.44223922-5.7442974-26.51214382 1.76747711l-41.97756145 48.60559611c-6.62803595 7.95364315-5.7442974 19.44223922 1.76747712 26.5121438l40.21008433 34.90765688c7.95364315 6.62803595 19.44223922 5.7442974 26.51214382-1.76747712l41.97756145-48.60559612c6.62803595-7.95364315 5.7442974-19.44223922-1.76747712-26.51214379l-40.21008433-34.90765687z m148.46800528-89.69941901l-40.21008433-34.90765688c-7.95364315-6.62803595-19.44223922-5.7442974-26.5121438 1.76747714l-41.97756145 48.60559609c-6.62803595 7.95364315-5.7442974 19.44223922 1.76747582 26.51214381l40.21008563 34.90765687c7.95364315 6.62803595 19.44223922 5.7442974 26.5121438-1.76747712l41.97756015-48.6055961c6.62803595-7.95364315 5.7442974-19.88410785-1.76747582-26.51214381zM882.10676623 194.43817181999998c-3.09308301 17.23289347-13.2560719 27.83775099-26.07027517 27.83775099h-2.65121438c-36.67513269 0-66.2803595 30.04709674-66.28035952 67.60596669 0 11.93046471 5.7442974 25.62840525 5.7442974 25.62840524 6.62803595 15.02354772 1.3256072 33.58204838-11.48859479 42.86130001l-0.88373854 0.44186863-67.16409807 38.00073988-0.88373726 0.44186864c-4.4186902 1.76747583-9.27925033 3.09308301-14.13981047 3.09308301-10.16298889 0-20.76784641-4.4186902-27.39588235-11.48859479-7.51177452-7.95364315-32.69831113-29.60522682-52.14054905-29.6052281-19.88410785 0-45.07064446 22.53532223-52.58241898 30.48896538-6.62803595 7.06990459-17.23289347 11.48859609-27.39588107 11.48859607-4.86056012 0-9.72111895-0.88373856-14.13981047-2.65121438l-0.88373853-0.44186863-69.37344253-38.88447844-0.88373856-0.44186864c-13.2560719-9.27925033-18.11663203-27.83775099-11.93046471-42.86129871 0 0 5.7442974-13.69794053 5.74429868-25.62840654 0-37.11700133-29.60522682-67.6059667-66.2803595-67.6059667h-2.20934575-0.44186863c-12.81420326 0-22.97719087-11.04672615-26.07027516-27.83775098-0.44186863-1.3256072-5.7442974-30.93083402-5.7442974-53.90802487 0-22.97719087 5.30242877-52.58241897 5.7442974-53.90802616 3.09308301-17.23289347 13.2560719-27.83775099 26.07027516-27.837751h2.65121438c36.67513269 0 66.2803595-30.04709674 66.2803595-67.60596669 0-11.93046471-5.7442974-25.62840525-5.74429868-25.62840524-6.62803595-15.02354772-1.3256072-33.58204838 11.48859607-42.86130003l0.88373857-0.44186863 65.83848958-37.55886995 0.88373855-0.44186992c4.4186902-1.76747583 9.27925033-3.09308301 14.13981046-3.09308303 10.60485751 0 20.76784641 4.4186902 27.39588107 11.93046472 9.27925033 10.16298889 34.90765557 31.81457257 53.46615753 31.81457256 20.32597648 0 46.39625165-23.86092942 53.90802487-32.25644119 6.62803595-7.51177452 17.23289347-11.93046471 27.83775098-11.93046472 4.86056012 0 9.72111895 0.88373856 14.13981047 2.65121439l0.88373857 0.44186864 68.04783533 38.4426085 0.88373854 0.44186863c13.2560719 9.27925033 18.11663203 27.83775099 11.93046471 42.86130003 0 0-5.7442974 13.69794053-5.74429868 25.62840524 0 37.11700133 29.60522682 67.6059667 66.28035951 67.60596669h2.65121438c12.81420326 0 22.97719087 11.04672615 26.07027516 27.837751 0 0.44186863 5.7442974 30.04709674 5.7442974 53.90802616-0.44186863 22.53532223-5.7442974 52.14054905-6.18616602 53.46615624z m-45.07064447-89.6994203c-54.79176343-7.95364315-97.21119351-55.67550198-97.21119481-113.56034843 0-13.2560719 3.09308301-25.62840525 5.74429868-34.46578694l-46.83812157-26.5121438c-6.18616732 6.18616732-14.58167909 13.2560719-23.86092941 19.88410785-20.32597648 14.58167909-40.21008433 21.65158367-58.76858501 21.65158367-35.79139413 0-68.48970526-27.83775099-82.18764578-40.65195426l-44.62877584 25.62840654c2.65121438 8.39551178 5.7442974 21.20971504 5.74429868 34.46578694 0 57.88484773-42.41943008 105.60670657-97.21119479 113.56034843-1.3256072 10.16298889-3.09308301 24.74466798-3.09308301 35.79139413s1.76747583 25.62840525 3.09308301 35.79139414c54.79176343 7.95364315 97.21119351 55.67550198 97.21119479 113.56034971 0 13.2560719-3.09308301 25.62840525-5.74429868 34.02391832l48.60559741 26.95401243c6.18616732-5.7442974 14.58167909-12.81420326 23.86092942-19.0003693 19.88410785-13.69794053 39.32634707-20.32597648 57.44297781-20.32597778s37.11700133 6.62803595 57.00110917 19.88410786c9.27925033 6.18616732 17.6747621 12.81420326 23.86092943 18.55850067l46.39625165-26.07027388c-2.65121438-8.39551178-5.7442974-21.20971504-5.7442974-34.46578696 0-57.88484773 42.41943008-105.60670657 97.21119352-113.56034971 1.3256072-10.16298889 3.09308301-24.74466798 3.0930843-35.79139414-0.44186863-11.04672615-2.20934575-25.62840525-3.97682157-35.34952549z m0 0M617.42719683 247.02059078000002c-58.768585 0-106.49044384-47.72185885-106.49044384-106.49044513s47.72185885-106.49044384 106.49044384-106.49044384 106.49044384 47.72185885 106.49044385 106.49044384S676.19578183 247.02059078000002 617.42719683 247.02059078000002z m0-165.70089876c-32.69831113 0-59.21045492 26.51214381-59.21045492 59.21045363s26.51214381 59.21045492 59.21045492 59.21045492 59.21045492-26.51214381 59.21045494-59.21045492-26.51214381-59.21045492-59.21045494-59.21045363z m0 0"  horiz-adv-x="1024" />

    
    <glyph glyph-name="disk" unicode="&#58954;" d="M908.38600733 139.85261305999995l-73.05568424 469.44169292c-27.80829353 83.89620571-75.41231969 180.0469139-195.12937839 180.04691528H380.0284402c-64.10047166 0-149.88198629-31.10758207-196.07203285-183.34620382l-78.2402817-466.14240438s-4.24194301-26.86563906-4.241943-41.47677563c0-66.45710714 51.84597056-120.18838525 115.94644222-120.18838523h578.7895567c64.10047166 0 115.94644224 53.73127811 115.94644223 120.18838523 0.47132654 14.61113657-3.77061647 41.47677562-3.77061647 41.47677563z m-520.81633558 406.75520226c3.77061647 0 7.06990501-1.41398101 10.36919356-1.88530753 4.71326955 53.73127811 50.90331611 95.67938165 107.46255622 95.67938026 53.73127811 0 97.56468919-37.70616053 106.51990313-87.66682217 3.77061647 0.47132654 7.54123156 0.94265446 11.31184802 0.94265446 35.34952507 0 64.10047166-27.80829353 64.10047166-62.21516413 0-34.4068706-28.7509466-62.21516412-64.10047166-62.21516412h-235.66350093c-32.99288962 0-59.85852865 26.39431251-59.85852866 58.44454765 0 32.52156306 26.39431251 58.91587557 59.85852866 58.91587558z m361.97913673-494.89335099H265.02465106c-28.7509466 0-51.84597056 21.68104158-51.84596919 48.0753541s23.09502258 48.07535409 51.84596919 48.0753541h484.99548396c28.7509466 0 51.84597056-21.68104158 51.84597055-48.0753541-0.47132654-26.86563906-23.56635051-48.07535409-52.31729709-48.0753541z m0 0"  horiz-adv-x="1024" />

    
    <glyph glyph-name="storageusage" unicode="&#58956;" d="M508.27172978 447.38059378c79.12217956 0 153.27333095 7.04228861 222.03920475 21.54111644s123.03291733 35.62569364 162.80113303 63.79484683v-85.33596327c0-23.19812623-17.39859437-44.73924267-51.78153126-64.20909868-34.3829369-19.88410785-81.19343999-35.62569364-140.43151171-46.81050309-59.23807171-11.59906251-123.44716917-17.39859437-193.04154665-17.39859437s-133.80347616 5.79953186-193.04154788 17.39859437c-59.23807171 11.59906251-106.04857481 27.3406483-140.4315117 46.81050309-34.3829369 19.88410785-51.78153127 41.01097245-51.78153005 64.20909868v85.33596327c39.7682157-28.16915319 94.03526045-49.29601778 162.80113303-63.79484683 69.59437748-14.49882905 143.33127702-21.54111644 222.86770844-21.54111644z m0-385.25458963c79.12217956 0 153.27333095 7.04228861 222.03920475 21.54111644s123.03291733 35.62569364 162.80113303 63.79484682v-85.33596326c0-23.19812623-17.39859437-44.32499083-51.78153126-64.20909868-34.3829369-19.88410785-81.19343999-35.62569364-140.43151171-46.81050309-59.23807171-11.59906251-123.44716917-17.39859437-193.04154665-17.39859437s-133.80347616 5.79953186-193.04154788 17.39859437c-59.23807171 11.59906251-106.04857481 27.3406483-140.4315117 46.81050309-34.3829369 19.88410785-51.78153127 41.01097245-51.78153005 64.20909868v85.33596326c39.7682157-28.16915319 94.03526045-49.29601778 162.80113303-63.79484682 69.59437748-14.08457599 143.33127702-21.54111644 222.86770844-21.54111644z m0 192.62729482c79.12217956 0 153.27333095 7.04228861 222.03920475 21.54111642s123.03291733 35.62569364 162.80113303 63.79484684v-85.33596326c0-23.19812623-17.39859437-44.32499083-51.78153126-64.20909868-34.3829369-19.88410785-81.19343999-35.21144059-140.43151171-46.8105031-59.23807171-11.59906251-123.44716917-17.39859437-193.04154665-17.39859436s-133.80347616 5.79953186-193.04154788 17.39859436c-59.23807171 11.59906251-106.04857481 27.3406483-140.4315117 46.8105031-34.3829369 19.88410785-51.78153127 41.01097245-51.78153005 64.20909868v85.33596326c39.7682157-28.16915319 94.03526045-49.29601778 162.80113303-63.79484684 69.59437748-14.49882905 143.33127702-21.54111644 222.86770844-21.54111642z m0 577.46763259c69.59437748 0 133.80347616-5.79953186 193.04154666-17.39859437 59.23807171-11.59906251 106.04857481-27.3406483 140.4315117-46.8105043 34.3829369-19.88410785 51.78153127-41.01097245 51.78153127-64.20909867v-64.20909747c0-23.19812623-17.39859437-44.32499083-51.78153127-64.20909867-34.3829369-19.88410785-81.19343999-35.21144059-140.4315117-46.81050431-59.23807171-11.59906251-123.44716917-17.39859437-193.04154666-17.39859438s-133.80347616 5.79953186-193.04154667 17.39859438c-59.23807171 11.59906251-106.04857481 27.3406483-140.4315117 46.81050431-34.3829369 19.88410785-51.78153127 41.01097245-51.78153126 64.20909867V703.80273422c0 23.19812623 17.39859437 44.73924267 51.78153126 64.20909867 34.3829369 19.88410785 81.19343999 35.21144059 140.4315117 46.8105043 59.23807171 11.59906251 123.44716917 17.39859437 193.04154667 17.39859437z m0 0"  horiz-adv-x="1024" />

    
    <glyph glyph-name="disasterclient" unicode="&#58957;" d="M914.0894049 434.64252042l37.82935096-19.52482752c53.69327342-27.45678784 51.8628209-70.77749818-3.66090503-97.01398376l-354.49763753-167.79148189c-55.52372594-26.23648559-144.60574935-25.62633533-197.68887253 1.83045253l-341.68447164 173.89298971c-53.69327342 27.45678784-51.8628209 70.77749818 3.66090506 97.01398374l28.0669381 13.42331971 311.78708101-160.46967181c53.08312319-26.8466376 142.16514659-28.06693809 197.68887252-1.83045253l318.49873908 160.46967182z m5.49135757-251.99229799l31.72784315-16.47407272c53.69327342-27.45678784 51.8628209-70.77749818-3.66090503-97.01398374l-351.4468845-169.0117824c-55.52372594-26.23648559-144.60574935-25.01618508-197.68887254 1.8304525L54.38686913 76.48397605000002c-53.69327342 27.45678784-51.8628209 70.77749818 3.66090506 97.01398376l25.0161851 12.20301741 328.87130216-159.24936954c53.08312319-26.8466376 142.16514659-28.06693809 197.68887253-1.83045251l309.95662849 158.02906726zM410.71496094 859.9176561c56.74402823 26.8466376 147.04635211 25.62633533 201.34977761-1.83045254l348.39612971-176.94374452c54.91357571-28.06693809 52.47297294-71.99779867-3.66090506-98.84443626l-360.59914711-170.84223494c-56.74402823-26.8466376-147.04635211-25.62633533-201.34977758 1.83045252l-348.39612971 176.94374454c-54.91357571 28.06693809-52.47297294 71.99779867 3.66090506 98.84443627l360.59914708 170.84223493z m0 0"  horiz-adv-x="1024" />

    
    <glyph glyph-name="product" unicode="&#58958;" d="M275.87621888 608.86129778H68.10282667c-19.02971221 0-34.56417223-16.69954333-34.56417224-37.28270223v-537.49228998c0-20.5831589 15.53445888-37.28270222 34.56417224-37.28270223h208.16175445c19.02971221 0 34.56417223 16.69954333 34.56417109 37.28270223V571.57859555c0 20.5831589-15.53445888 37.28270222-34.95253333 37.28270223zM131.40574777 71.36900778999996c-20.5831589 0-37.28270222 16.69954333-37.28270222 37.28270222s16.69954333 37.28270222 37.28270222 37.28270222 37.28270222-16.69954333 37.28270222-37.28270222-17.08790557-37.28270222-37.28270222-37.28270222z m68.35162112 254.76513109H60.7239589V395.65084445h139.03340999v-69.51670557z m0 140.97521778H60.7239589v67.96326001h139.03340999v-67.96326001z m449.33423445 346.03008h-273.79484444c-19.80643555 0-36.11761778-17.47626667-36.11761778-38.83614777v-738.66353778c0-21.3598811 15.92282112-38.83614777 36.11761778-38.83614777h273.79484444c19.80643555 0 36.11761778 17.47626667 36.11761778 38.83614777V774.30328889c-0.3883611 21.74824334-16.31118222 38.83614777-36.11761778 38.83614777z m-137.09160334-741.77042887c-20.5831589 0-37.28270222 16.69954333-37.28270222 37.28270222s16.69954333 37.28270222 37.28270222 37.28270222 37.28270222-16.69954333 37.28270222-37.28270222-16.69954333-37.28270222-37.28270222-37.28270222z m102.91579221 463.31524664H407.1424v69.90506667h207.77339221v-69.90506667z m0 138.6450489H407.1424V743.62273223h207.77339221v-70.2934289z m340.98138112-64.46800555h-208.16175445c-19.02971221 0-34.56417223-16.69954333-34.56417109-37.28270223v-537.49228998c0-20.5831589 15.53445888-37.28270222 34.56417109-37.28270223h208.16175445c19.02971221 0 34.56417223 16.69954333 34.56417224 37.28270223V571.57859555c0.3883611 20.5831589-15.14609778 37.28270222-34.56417224 37.28270223zM892.59425223 71.36900778999996c-20.5831589 0-37.28270222 16.69954333-37.28270222 37.28270222s16.69954333 37.28270222 37.28270222 37.28270222 37.28270222-16.69954333 37.28270222-37.28270222-16.69954333-37.28270222-37.28270222-37.28270222z m68.73998222 254.76513109h-137.09160334V395.65084445h137.09160334v-69.51670557z m0 140.97521778h-137.09160334v67.96326001h137.09160334v-67.96326001z m0 0"  horiz-adv-x="1024" />

    
    <glyph glyph-name="hint" unicode="&#58959;" d="M510.293333-104.10666700000002C241.664-104.10666700000002 23.893333 113.66399999999999 23.893333 382.29333299999996S241.664 868.693333 510.293333 868.693333 996.693333 650.922667 996.693333 382.29333299999996 778.922667-104.10666700000002 510.293333-104.10666700000002z m-29.354666 747.178667c-5.461333 0-10.922667-2.048-14.677334-6.144-3.754667-4.096-5.802667-9.557333-5.461333-15.018667l15.36-321.877333c0.341333-6.144 5.461333-10.922667 11.264-10.922667h45.738667c6.144 0 10.922667 4.778667 11.264 10.922667l15.36 321.877333c0.341333 5.461333-1.706667 10.922667-5.461334 15.018667-3.754667 4.096-9.216 6.144-14.677333 6.144h-58.709333z m29.354666-520.533333c27.989333 0 50.517333 22.528 50.517334 50.517333 0 27.989333-22.528 50.517333-50.517334 50.517333-27.989333 0-50.517333-22.528-50.517333-50.517333 0-27.648 22.528-50.517333 50.517333-50.517333z m0 0"  horiz-adv-x="1024" />

    
    <glyph glyph-name="cpu" unicode="&#58960;" d="M707.242667 579.925333H312.661333v-394.922666h394.922667V579.925333z m296.277333-147.797333V530.773333h-98.645333V678.912c0 54.613333-44.373333 98.645333-98.645334 98.645333h-148.138666V876.202667h-98.645334v-98.645334H460.8V876.202667h-98.986667v-98.645334H213.674667c-54.613333 0-98.645333-44.373333-98.645334-98.645333V530.773333H16.384v-98.645333h98.645333v-98.645333H16.384v-98.645334h98.645333v-148.138666c0-54.613333 44.373333-98.645333 98.645334-98.645334H361.813333v-98.986666h98.645334v98.645333h98.645333V-110.93333299999995h98.645333v98.645333h148.138667c54.613333 0 98.645333 44.373333 98.645333 98.645333v148.138667h98.986667v98.645333h-98.645333V431.786667H1003.52v0.341333z m-197.632-345.429333H213.674667V678.912h592.213333v-592.213333z m0 0"  horiz-adv-x="1024" />

    
    <glyph glyph-name="protect" unicode="&#58928;" d="M512 819.2C471.04 819.2 128 691.2 128 691.2v-481.28C128 81.91999999999996 448-76.79999999999995 509.44-76.79999999999995 570.88-76.79999999999995 896 84.48000000000002 896 209.91999999999996V691.2S552.96 819.2 512 819.2z m243.2-353.28l-248.32-248.32v-2.56c-12.8-12.8-33.28-12.8-46.08 0l-135.68 135.68c-12.8 12.8-12.8 33.28 0 46.08s33.28 12.8 46.08 0l112.64-112.64 225.28 225.28c12.8 12.8 33.28 12.8 46.08 0 12.8-10.24 12.8-30.72 0-43.52z"  horiz-adv-x="1024" />

    
    <glyph glyph-name="email" unicode="&#58981;" d="M924.330667 749.568H99.669333c-48.810667 0-88.405333-39.594667-88.405333-88.405333v-530.090667c0-48.810667 39.594667-88.405333 88.405333-88.405333h824.661334c48.810667 0 88.405333 39.594667 88.405333 88.405333V661.162667c0 48.469333-39.594667 88.405333-88.405333 88.405333zM70.314667 131.072v518.826667l260.096-260.096h-0.341334l-259.754666-259.754667v1.024zM112.981333 690.517333H911.36L512 291.49866699999995 112.981333 690.517333zM372.053333 348.15999999999997l139.946667-139.946667 140.970667 140.970667 247.466666-247.466667h-774.826666l246.442666 246.442667z m323.242667 41.642667h-1.706667l260.096 260.096V131.41333299999997l-258.389333 258.389334z m0 0"  horiz-adv-x="1024" />

    
    <glyph glyph-name="clientManagement" unicode="&#58982;" d="M908.288 107.17866700000002c12.629333 21.504 35.498667 32.768 57.002667 30.037333 3.072 13.312 4.778667 27.306667 4.778666 41.642667 0 12.629333-1.365333 24.917333-3.754666 36.864-21.845333-2.730667-45.056 8.533333-57.685334 30.378666-12.629333 22.186667-10.581333 48.469333 3.413334 65.877334-19.114667 17.749333-42.325333 31.744-68.266667 39.936-7.850667-21.162667-29.696-36.181333-55.637333-36.181334-25.6 0-47.786667 15.018667-55.637334 36.181334-25.258667-8.192-48.469333-21.845333-67.584-39.594667 13.994667-17.408 16.042667-43.690667 3.072-65.877333-12.629333-21.845333-35.84-33.109333-57.685333-30.037334-2.730667-12.288-3.754667-24.917333-3.754667-37.888 0-13.994667 1.706667-27.989333 4.778667-40.96 21.504 2.389333 44.373333-8.874667 56.661333-30.378666 12.288-21.162667 10.922667-46.08-1.365333-63.488 19.456-17.408 42.325333-30.72 67.925333-38.570667 8.874667 19.114667 29.696 32.768 53.930667 32.768 24.234667 0 45.056-13.312 53.930667-32.768 25.258667 7.850667 48.128 21.162667 67.242666 38.229333-12.288 17.749333-13.653333 42.666667-1.365333 63.829334z m-120.149333-7.168c-43.690667 0-79.189333 35.498667-79.189334 79.189333 0 43.690667 35.498667 79.189333 79.189334 79.189333 43.690667 0 79.189333-35.498667 79.189333-79.189333 0-43.690667-35.498667-79.189333-79.189333-79.189333z m0 0M550.570667 187.05066699999998c0 3.413333 0 6.485333 0.341333 9.898666h-358.4c-25.941333 0-46.762667 20.821333-46.762667 46.762667v46.762667h429.056c37.888 75.776 116.053333 127.658667 206.506667 127.658666 51.2 0 98.304-16.725333 136.533333-44.714666V663.893333c0 51.541333-41.984 93.184-93.525333 93.184h-631.466667c-51.541333 0-93.525333-41.642667-93.525333-93.184v-420.522666c0-51.541333 41.984-93.525333 93.525333-93.525334h234.154667V56.32000000000005h-46.762667c-12.970667 0-23.210667-10.581333-23.210666-23.210667 0-12.970667 10.581333-23.210667 23.210666-23.210666h253.269334c-50.517333 42.325333-82.944 106.154667-82.944 177.152z"  horiz-adv-x="1024" />

    
    <glyph glyph-name="synchronous" unicode="&#58983;" d="M45.056 184.32000000000005c3.413333-12.970667 10.581333-24.917333 20.138667-34.474667l156.330666-156.330666c30.72-30.378667 79.872-30.378667 110.592 0 30.378667 30.378667 30.378667 79.872 0 110.250666l-22.869333 22.869334h592.554667c43.008 0 78.165333 35.157333 78.165333 78.165333 0 43.008-35.157333 78.165333-78.165333 78.165333H120.832c-24.576 0.341333-47.786667-10.922667-62.805333-30.378666-14.677333-19.456-19.456-44.714667-12.970667-68.266667zM900.778667 485.717333H120.149333c-43.008 0-78.165333 35.157333-78.165333 78.165334 0 43.008 35.157333 78.165333 78.165333 78.165333h592.554667l-22.869333 22.869333c-30.378667 30.378667-30.378667 79.872 0 110.250667 30.72 30.378667 79.872 30.378667 110.592 0l156.330666-156.330667c16.384-16.384 24.576-38.912 22.528-61.781333-3.413333-40.96-37.546667-72.021333-78.506666-71.338667z"  horiz-adv-x="1024" />

    
    <glyph glyph-name="quxiaotongbu" unicode="&#58984;" d="M900.778667 485.717333H120.149333c-43.008 0-78.165333 35.157333-78.165333 78.165334 0 43.008 35.157333 78.165333 78.165333 78.165333h592.554667l-22.869333 22.869333c-30.378667 30.378667-30.378667 79.872 0 110.250667 30.72 30.378667 79.872 30.378667 110.592 0l156.330666-156.330667c16.384-16.384 24.576-38.912 22.528-61.781333-3.413333-40.96-37.546667-72.021333-78.506666-71.338667zM477.866667 208.213333c0-89.770667 47.786667-172.714667 125.610666-217.429333a252.0064 252.0064 0 0 1 251.221334 0c77.824 44.714667 125.610667 127.658667 125.610666 217.429333 0 138.581333-112.298667 251.221333-251.221333 251.221334-138.922667 0-251.221333-112.64-251.221333-251.221334z m0 0M773.461333 208.213333l66.56-66.56c12.288-12.288 12.288-32.085333 0-44.373333-12.288-12.288-32.085333-12.288-44.373333 0l-66.56 66.56-66.56-66.56c-12.288-12.288-32.085333-12.288-44.373333 0-12.288 12.288-12.288 32.085333 0 44.373333l66.56 66.56-66.56 66.56c-7.850667 7.850667-10.922667 19.456-8.192 30.378667 3.072 10.922667 11.264 19.456 22.186666 22.186667 10.922667 3.072 22.528-0.341333 30.378667-8.192l66.56-66.56 66.56 66.56c7.850667 7.850667 19.456 10.922667 30.378667 8.192 10.922667-3.072 19.456-11.264 22.186666-22.186667 3.072-10.922667-0.341333-22.528-8.192-30.378667l-66.56-66.56z m0 0M308.906667 126.976h111.274666c-8.192 28.672-12.629333 58.709333-12.629333 89.770667 0 22.528 2.389333 44.714667 6.826667 66.218666h-293.546667c-24.576 0.341333-47.786667-10.922667-62.805333-30.378666-15.018667-19.456-19.797333-44.714667-13.312-68.266667 3.413333-12.970667 10.581333-24.917333 20.138666-34.474667l156.330667-156.330666c30.72-30.378667 79.872-30.378667 110.592 0 30.378667 30.378667 30.378667 79.872 0 110.250666l-22.869333 23.210667z"  horiz-adv-x="1024" />

    
    <glyph glyph-name="setSynchronizationRate" unicode="&#58985;" d="M1005.70453333 346.49884480000003h-22.20942186c-11.6508448 0-22.20942187 10.55857813-26.2144 21.1171552-2.54862187 6.5536-5.0972448 15.65582187-9.10222294 22.20942187-5.0972448 10.55857813-4.00497813 24.7580448 5.0972448 32.768l15.65582187 15.65582293c5.0972448 5.0972448 5.0972448 13.1072 0 18.20444373l-27.6707552 27.67075627c-5.0972448 5.0972448-13.1072 5.0972448-18.2044448 0l-15.65582187-15.65582293c-9.10222187-9.10222187-21.1171552-10.55857813-32.768-5.09724374-6.5536 4.00497813-15.65582187 6.5536-22.20942186 9.10222187-11.6508448 4.00497813-21.1171552 14.5635552-21.11715627 26.2144v22.20942187c0 6.5536-1.4563552 8.0099552-9.10222187 8.00995626h-39.3216c-6.5536 0-17.11217813-1.4563552-17.11217813-8.00995626v-22.20942187c0-11.6508448-5.0972448-22.20942187-17.11217707-26.2144-6.5536-2.54862187-13.1072-5.0972448-19.6608-9.10222187-10.55857813-5.0972448-23.66577813-4.00497813-31.3116448 5.09724374l-15.65582186 15.65582293c-5.0972448 5.0972448-13.1072 5.0972448-18.2044448 0l-27.6707552-27.67075627c-5.0972448-5.0972448-5.0972448-13.1072 0-18.20444373l15.65582186-15.65582293c9.10222187-9.10222187 10.55857813-21.1171552 5.0972448-32.768-4.00497813-6.5536-6.5536-15.65582187-9.10222293-22.20942187-4.00497813-11.6508448-14.5635552-21.1171552-26.2144-21.1171552H599.38133333c-8.0099552 0-15.65582187-1.4563552-15.65582186-9.10222293v-39.3216c0-6.5536 9.10222187-17.11217813 15.65582186-17.11217707h22.20942187c11.6508448 0 22.20942187-5.0972448 26.2144-17.11217813 2.54862187-6.5536 5.0972448-13.1072 9.10222293-19.6608 5.0972448-10.55857813 4.00497813-23.66577813-5.0972448-31.3116448l-15.65582186-15.65582187c-5.0972448-5.0972448-5.0972448-13.1072 0-18.2044448l27.6707552-27.6707552c5.0972448-5.0972448 13.1072-5.0972448 18.2044448 0l15.65582186 15.65582187c9.10222187 9.10222187 21.1171552 10.55857813 32.768 5.0972448 6.5536-4.00497813 11.6508448-6.5536 18.2044448-9.10222187 11.6508448-4.00497813 17.11217813-14.5635552 17.11217707-26.2144v-22.20942293c0-6.5536 10.55857813-15.65582187 17.11217813-15.65582187h39.3216c6.5536 0 9.10222187 9.10222187 9.10222187 15.65582187v22.20942293c0 11.6508448 10.55857813 22.20942187 21.11715627 26.2144 6.5536 2.54862187 15.65582187 5.0972448 22.20942186 9.10222187 10.55857813 5.0972448 24.7580448 4.00497813 32.768-5.0972448l15.65582187-15.65582187c5.0972448-5.0972448 13.1072-5.0972448 18.2044448 0l27.6707552 27.6707552c5.0972448 5.0972448 5.0972448 13.1072 0 18.2044448l-15.65582187 15.65582187c-9.10222187 9.10222187-10.55857813 21.1171552-5.0972448 32.768 4.00497813 6.5536 6.5536 11.6508448 9.10222294 18.2044448 4.00497813 11.6508448 14.5635552 17.11217813 26.2144 17.11217813h22.20942186c8.0099552 0 8.0099552 10.55857813 8.0099552 17.11217707v39.3216c0 7.64586667-1.4563552 9.10222187-8.0099552 9.10222293z m-204.25386666-89.20177813c-34.2243552 0-60.4387552 27.6707552-60.4387552 60.07466666 0 32.768 27.6707552 60.4387552 60.4387552 60.4387552 32.768 0 60.4387552-27.6707552 60.4387552-60.4387552 0-32.40391147-26.2144-60.07466667-60.4387552-60.07466666zM212.71893333 350.50382187H42.32533333c-20.75306667 0-37.5011552 16.74808853-37.5011552 37.50115626 0 20.75306667 16.74808853 37.5011552 37.5011552 37.5011552h170.3936c20.75306667 0 37.5011552-16.74808853 37.5011552-37.5011552 0.36408853-20.38897813-16.74808853-37.5011552-37.5011552-37.50115626zM247.67146667 211.42186666999999l-67.3564448 156.55822186c-8.0099552 18.93262187 0.72817813 41.1420448 19.6608 49.5160896 18.93262187 8.0099552 41.1420448-0.72817813 49.5160896-19.6608l67.35644373-156.55822293c8.0099552-18.93262187-0.72817813-41.1420448-19.6608-49.51608853-18.93262187-8.3740448-41.1420448 0.72817813-49.51608853 19.6608zM249.49191147 241.64124479999998l112.13937706 499.5299552c4.36906667 20.02488853 24.7580448 33.13208853 44.78293334 28.39893333 20.02488853-4.36906667 33.13208853-24.7580448 28.39893333-44.78293333L322.67377813 225.25724479999997c-4.36906667-20.02488853-24.7580448-33.13208853-44.78293333-28.39893333-20.02488853 4.36906667-33.13208853 24.3939552-28.39893333 44.78293333zM507.2668448 99.28248853000002L369.2771552 725.15128853c-4.36906667 20.02488853 8.3740448 40.41386667 28.76302293 44.78293334 20.02488853 4.36906667 40.41386667-8.3740448 44.78293334-28.76302187l137.98968853-625.8688c4.36906667-20.02488853-8.3740448-40.41386667-28.76302187-44.78293333-20.38897813-4.36906667-40.41386667 8.3740448-44.78293333 28.76302186zM717.71022187 560.9472000000001l-18.93262187 51.33653333c-1.8204448 5.46133333-5.0972448 9.8304-8.73813333 13.83537814-5.0972448 6.5536-12.74311147 11.6508448-21.4812448 13.83537706-20.02488853 4.36906667-40.41386667-8.3740448-44.78293334-28.39893333l-32.768-145.27146667c30.58346667 43.69066667 75.00231147 77.1868448 126.70293334 94.66311147zM548.40888853 276.59377813000003l-36.77297706-164.56817813c-4.36906667-20.02488853 8.3740448-40.41386667 28.39893333-44.78293333 20.02488853-4.36906667 40.41386667 8.3740448 44.78293333 28.39893333l14.92764374 66.26417813a251.4761952 251.4761952 0 0 0-51.33653334 114.688z"  horiz-adv-x="1024" />

    
    <glyph glyph-name="hangUp" unicode="&#58986;" d="M514.048 829.098667c-243.370667 0-440.661333-197.290667-440.661333-440.661334s197.290667-440.661333 440.661333-440.661333S954.709333 145.06666700000005 954.709333 388.437333c0 243.712-197.290667 440.661333-440.661333 440.661334z m-51.541333-598.357334c0-26.624-21.845333-48.810667-48.810667-48.810666-26.624 0-48.810667 21.845333-48.810667 48.810666v316.416c0 26.624 21.845333 48.810667 48.810667 48.810667 26.624 0 48.810667-21.845333 48.810667-48.810667v-316.416z m200.704 0c0-26.624-21.845333-48.810667-48.810667-48.810666-26.624 0-48.810667 21.845333-48.810667 48.810666v316.416c0 26.624 21.845333 48.810667 48.810667 48.810667 26.624 0 48.810667-21.845333 48.810667-48.810667v-316.416z m0 0"  horiz-adv-x="1024" />

    
    <glyph glyph-name="detection" unicode="&#58987;" d="M738.986667 294.57066699999996c-53.589333 0-96.938667-43.349333-96.938667-96.938667s43.349333-96.938667 96.938667-96.938667 96.938667 43.349333 96.938666 96.938667c0 25.6-10.24 50.517333-28.330666 68.608-18.090667 18.090667-43.008 28.330667-68.608 28.330667z m-44.032-70.656l-17.749334-52.906667c1.365333 51.541333 0 70.656 0 70.656 39.936 1.024 88.405333 0 88.405334 0l-70.656-17.749333z m176.469333 229.376h-317.781333v-494.250667h423.594666V347.47733300000004l-105.813333 105.813334z m42.666667-442.026667c-5.12-5.12-11.605333-7.850667-18.773334-7.850667s-13.653333 2.730667-18.773333 7.850667l-71.338667 71.338667c-20.138667-11.605333-43.008-17.749333-66.56-17.749334-35.157333 0-68.949333 13.994667-93.525333 38.912-24.917333 24.917333-38.912 58.368-38.912 93.525334 0 73.045333 59.392 132.437333 132.437333 132.437333s132.437333-59.392 132.437334-132.437333c0-28.672-9.216-56.32-26.282667-79.189334l69.290667-69.290666c10.581333-10.24 10.581333-26.965333 0-37.546667zM513.024 500.394667h79.872L502.442667 599.04c-17.066667 16.725333-44.373333 16.042667-61.098667-1.024-1.706667-1.706667-3.072-3.413333-4.437333-5.12l-137.898667-152.917333H231.424c-23.893333 0-43.349333-19.456-43.349333-43.349334 0-23.893333 19.456-43.349333 43.349333-43.349333h85.674667c4.096-1.024 8.192-0.341333 11.946666 0.341333 12.970667 2.389333 23.893333 10.24 30.037334 21.845334l118.442666 127.317333 35.498667-39.594667v37.205334z m0 0M513.024 242.34666700000002H186.026667c-14.336 0-27.989333 5.802667-37.888 15.701333-9.898667 10.24-15.701333 23.893333-15.701334 38.229333V663.552c0 14.336 5.461333 27.989333 15.701334 38.229333 9.898667 10.24 23.893333 15.701333 37.888 15.701334H812.373333c29.696 0 54.272-24.234667 54.272-53.930667v-162.816h24.917334l61.781333-61.44V695.978667c0 28.672-11.264 55.978667-31.744 76.458666-20.138667 20.138667-47.786667 31.744-76.458667 31.744H153.941333c-59.733333 0-107.861333-48.469333-107.861333-107.861333v-432.128c0-28.672 11.264-55.978667 31.744-76.458667 20.138667-20.138667 47.786667-31.744 76.458667-31.744h359.082666l-0.341333 86.357334z m0-140.629334H315.733333c-15.36 0-29.696-8.192-37.546666-21.504-7.850667-13.312-7.850667-29.696 0-43.349333 7.850667-13.312 21.845333-21.504 37.546666-21.504h197.290667v86.357333z m0 0"  horiz-adv-x="1024" />

    
    <glyph glyph-name="cancelAnalysis" unicode="&#58988;" d="M482.304 384.341333V820.906667c-228.693333-0.682667-435.882667-187.733333-434.858667-436.565334h434.858667z m-434.858667 0M816.810667 471.381333c22.869333-5.12 44.714667-12.629333 65.536-22.869333-26.624 173.056-161.109333 309.930667-336.896 337.237333V725.333333c134.144-24.234667 238.933333-124.586667 271.36-253.952zM495.274667 41.301333c-4.437333 0-8.874667-0.341333-13.312-0.341333-167.253333 0-308.565333 120.149333-338.944 280.576H82.261333C113.322667 128 281.941333-18.77333299999998 481.962667-18.77333299999998c18.090667 0 36.181333 1.365333 53.930666 3.754666-15.701333 16.725333-29.354667 35.84-40.618666 56.32zM751.957333 406.528c-124.586667 0-225.28-100.693333-225.28-225.28s100.693333-225.28 225.28-225.28 225.28 100.693333 225.28 225.28c0 124.245333-101.034667 225.28-225.28 225.28z m113.664-283.648c15.36-15.36 15.36-40.277333 0-55.296-15.36-15.36-40.277333-15.36-55.296 0l-58.368 58.368-58.368-58.368c-15.36-15.36-40.277333-15.36-55.296 0-15.36 15.36-15.36 40.277333 0 55.296l58.368 58.368-58.368 58.368c-15.36 15.36-15.36 40.277333 0 55.296 15.36 15.36 40.277333 15.36 55.296 0l58.368-58.368 58.368 58.368c15.36 15.36 40.277333 15.36 55.296 0 15.36-15.36 15.36-40.277333 0-55.296l-58.368-58.368 58.368-58.368z"  horiz-adv-x="1024" />

    
    <glyph glyph-name="analysis" unicode="&#58989;" d="M532.821333 372.736V815.786667c-232.106667-0.682667-442.026667-190.464-441.002666-443.050667h441.002666z m-441.002666 0M188.757333 309.24800000000005h-61.44C158.72 112.98133299999995 329.728-35.84000000000003 532.48-35.84000000000003c226.304 0 410.624 184.32 410.624 410.624 0 204.8-147.114667 374.784-346.453333 405.504v-61.44c165.205333-30.378667 286.037333-173.056 286.037333-344.405333 0-193.194667-157.013333-350.208-350.208-350.208-169.301333 0.341333-313.002667 122.538667-343.722667 285.013333z m0 0"  horiz-adv-x="1024" />

    
    </font>
</defs>
</svg>
